<svg width="198" height="160" viewBox="0 0 198 160" fill="none" xmlns="http://www.w3.org/2000/svg">
<path d="M55.5413 110.631C66.894 110.631 76.0971 86.0893 76.0971 55.8156C76.0971 25.5418 66.894 1 55.5413 1C44.1886 1 34.9855 25.5418 34.9855 55.8156C34.9855 86.0893 44.1886 110.631 55.5413 110.631Z" fill="#FFB845"/>
<path opacity="0.53" d="M55.5413 1C55.37 1 55.1988 1 54.9932 1.03426C64.4831 5.89914 71.6434 28.1337 71.6434 54.8563C71.6434 84.6622 62.7359 108.884 51.6357 109.638C52.9034 110.289 54.2052 110.631 55.5413 110.631C66.8813 110.631 76.0972 86.1011 76.0972 55.8155C76.0972 25.53 66.8813 1 55.5413 1Z" fill="#D89535"/>
<path d="M55.5413 110.631C66.894 110.631 76.0971 86.0893 76.0971 55.8156C76.0971 25.5418 66.894 1 55.5413 1C44.1886 1 34.9855 25.5418 34.9855 55.8156C34.9855 86.0893 44.1886 110.631 55.5413 110.631Z" stroke="black" stroke-width="2" stroke-miterlimit="10" stroke-linecap="round" stroke-linejoin="round"/>
<path d="M55.4386 37.7268V144.96" stroke="black" stroke-width="2" stroke-miterlimit="10" stroke-linecap="round" stroke-linejoin="round"/>
<path d="M55.5413 71.3009L63.6608 60.6804" stroke="black" stroke-width="2" stroke-miterlimit="10" stroke-linecap="round" stroke-linejoin="round"/>
<path d="M55.5415 92.1994L46.771 83.052" stroke="black" stroke-width="2" stroke-miterlimit="10" stroke-linecap="round" stroke-linejoin="round"/>
<path d="M55.4386 55.6446L48.3468 47.6621" stroke="black" stroke-width="2" stroke-miterlimit="10" stroke-linecap="round" stroke-linejoin="round"/>
<path opacity="0.6" d="M65.8194 49.683C67.3898 49.683 68.6629 48.4099 68.6629 46.8394C68.6629 45.269 67.3898 43.9958 65.8194 43.9958C64.2489 43.9958 62.9758 45.269 62.9758 46.8394C62.9758 48.4099 64.2489 49.683 65.8194 49.683Z" fill="#EF8C3A"/>
<path d="M46.771 35.4313C47.7738 35.4313 48.5867 34.6184 48.5867 33.6156C48.5867 32.6127 47.7738 31.7998 46.771 31.7998C45.7681 31.7998 44.9552 32.6127 44.9552 33.6156C44.9552 34.6184 45.7681 35.4313 46.771 35.4313Z" fill="#FFD766"/>
<path d="M58.5908 31.2513C59.4422 31.2513 60.1324 30.5611 60.1324 29.7097C60.1324 28.8582 59.4422 28.168 58.5908 28.168C57.7393 28.168 57.0491 28.8582 57.0491 29.7097C57.0491 30.5611 57.7393 31.2513 58.5908 31.2513Z" fill="#FFD766"/>
<path opacity="0.6" d="M44.681 68.8343C46.2514 68.8343 47.5245 67.5612 47.5245 65.9908C47.5245 64.4203 46.2514 63.1472 44.681 63.1472C43.1105 63.1472 41.8374 64.4203 41.8374 65.9908C41.8374 67.5612 43.1105 68.8343 44.681 68.8343Z" fill="#EF8C3A"/>
<path opacity="0.6" d="M51.0877 26.284C52.6582 26.284 53.9313 25.0109 53.9313 23.4405C53.9313 21.87 52.6582 20.5969 51.0877 20.5969C49.5172 20.5969 48.2441 21.87 48.2441 23.4405C48.2441 25.0109 49.5172 26.284 51.0877 26.284Z" fill="#EF8C3A"/>
<path opacity="0.6" d="M63.7637 83.1546C65.3342 83.1546 66.6073 81.8815 66.6073 80.3111C66.6073 78.7406 65.3342 77.4675 63.7637 77.4675C62.1933 77.4675 60.9202 78.7406 60.9202 80.3111C60.9202 81.8815 62.1933 83.1546 63.7637 83.1546Z" fill="#EF8C3A"/>
<path d="M66.5046 148.728C66.5046 144.411 69.9991 140.917 74.3159 140.917C78.6326 140.917 82.1271 144.411 82.1271 148.728H66.5046Z" fill="#FFB845"/>
<path d="M66.5046 148.728C66.5046 144.411 69.9991 140.917 74.3159 140.917C78.6326 140.917 82.1271 144.411 82.1271 148.728H66.5046Z" stroke="black" stroke-width="2" stroke-miterlimit="10" stroke-linecap="round" stroke-linejoin="round"/>
<path d="M105.972 148.728C105.972 145.953 108.199 143.726 110.974 143.726C113.749 143.726 115.976 145.953 115.976 148.728H105.972Z" fill="black"/>
<path d="M97.2014 148.282C97.2014 145.987 99.0514 144.137 101.347 144.137C103.642 144.137 105.492 145.987 105.492 148.282H97.2014Z" fill="black"/>
<path d="M105.972 148.728C105.972 145.953 108.199 143.726 110.974 143.726C113.749 143.726 115.976 145.953 115.976 148.728H105.972Z" stroke="black" stroke-width="2" stroke-miterlimit="10" stroke-linecap="round" stroke-linejoin="round"/>
<path d="M118.614 148.728C118.614 144.411 122.108 140.917 126.425 140.917C130.742 140.917 134.236 144.411 134.236 148.728H118.614Z" fill="black"/>
<path d="M185.18 148.488C185.18 145.508 187.578 143.109 190.559 143.109C193.54 143.109 195.938 145.508 195.938 148.488H185.18Z" fill="black"/>
<path d="M171.134 148.488C171.134 144.583 174.32 141.396 178.226 141.396C182.131 141.396 185.317 144.583 185.317 148.488H171.134Z" fill="black"/>
<path d="M118.614 148.728C118.614 144.411 122.108 140.917 126.425 140.917C130.742 140.917 134.236 144.411 134.236 148.728H118.614Z" stroke="black" stroke-width="2" stroke-miterlimit="10" stroke-linecap="round" stroke-linejoin="round"/>
<path d="M152.394 148.728H160.959" stroke="black" stroke-width="2" stroke-miterlimit="10" stroke-linecap="round" stroke-linejoin="round"/>
<path d="M23.9198 148.728H147.255" stroke="black" stroke-width="2" stroke-miterlimit="10" stroke-linecap="round" stroke-linejoin="round"/>
<path d="M107.376 131.769H100.525V148.728H107.376V131.769Z" fill="#81440E"/>
<path d="M107.376 131.769H100.525V148.728H107.376V131.769Z" fill="#81440E"/>
<path d="M107.376 131.769H100.525V136.977H107.376V131.769Z" fill="#663717"/>
<path d="M178.226 131.769H171.374V148.728H178.226V131.769Z" fill="#81440E"/>
<path d="M178.226 131.769H171.374V136.977H178.226V131.769Z" fill="#663717"/>
<path d="M107.376 131.769H100.525V148.728H107.376V131.769Z" stroke="black" stroke-width="2" stroke-miterlimit="10" stroke-linecap="round" stroke-linejoin="round"/>
<path d="M178.226 131.769H171.374V148.728H178.226V131.769Z" stroke="black" stroke-width="2" stroke-miterlimit="10" stroke-linecap="round" stroke-linejoin="round"/>
<path d="M109.741 87.7114H104.944V124.061H109.741V87.7114Z" fill="#81440E"/>
<path d="M109.741 95.009H104.944V118.237H109.741V95.009Z" fill="#663717"/>
<path d="M109.741 87.7114H104.944V124.061H109.741V87.7114Z" stroke="black" stroke-width="2" stroke-miterlimit="10" stroke-linecap="round" stroke-linejoin="round"/>
<path d="M173.806 87.7114H169.01V124.061H173.806V87.7114Z" fill="#81440E"/>
<path d="M173.806 93.2275H169.01V118.237H173.806V93.2275Z" fill="#663717"/>
<path d="M173.806 87.7114H169.01V124.061H173.806V87.7114Z" stroke="black" stroke-width="2" stroke-miterlimit="10" stroke-linecap="round" stroke-linejoin="round"/>
<path d="M185.214 93.2617H89.2872V103.54H185.214V93.2617Z" fill="#81440E"/>
<path d="M185.214 93.2617H89.2872V96.7562H185.214V93.2617Z" fill="#A05720"/>
<path d="M185.214 93.2617H89.2872V103.54H185.214V93.2617Z" stroke="black" stroke-width="2" stroke-miterlimit="10" stroke-linecap="round" stroke-linejoin="round"/>
<path d="M185.214 103.54H89.2872V113.817H185.214V103.54Z" fill="#81440E"/>
<path d="M185.214 103.54H89.2872V106.863H185.214V103.54Z" fill="#A05720"/>
<path d="M185.214 103.54H89.2872V113.817H185.214V103.54Z" stroke="black" stroke-width="2" stroke-miterlimit="10" stroke-linecap="round" stroke-linejoin="round"/>
<path d="M197 124.918H81.7504V131.77H197V124.918Z" fill="#81440E"/>
<path d="M197 124.918H81.7504V131.77H197V124.918Z" fill="#81440E"/>
<path d="M197 124.918H81.7504V127.659H197V124.918Z" fill="#A05720"/>
<path d="M197 124.918H81.7504V131.77H197V124.918Z" stroke="black" stroke-width="2" stroke-miterlimit="10" stroke-linecap="round" stroke-linejoin="round"/>
<path d="M107.788 100.593C108.79 100.593 109.603 99.7805 109.603 98.7777C109.603 97.7749 108.79 96.9619 107.788 96.9619C106.785 96.9619 105.972 97.7749 105.972 98.7777C105.972 99.7805 106.785 100.593 107.788 100.593Z" fill="#663717"/>
<path d="M107.788 110.117C108.79 110.117 109.603 109.304 109.603 108.302C109.603 107.299 108.79 106.486 107.788 106.486C106.785 106.486 105.972 107.299 105.972 108.302C105.972 109.304 106.785 110.117 107.788 110.117Z" fill="#663717"/>
<path d="M171.853 100.593C172.856 100.593 173.669 99.7805 173.669 98.7777C173.669 97.7749 172.856 96.9619 171.853 96.9619C170.851 96.9619 170.038 97.7749 170.038 98.7777C170.038 99.7805 170.851 100.593 171.853 100.593Z" fill="#663717"/>
<path d="M171.853 110.117C172.856 110.117 173.669 109.304 173.669 108.302C173.669 107.299 172.856 106.486 171.853 106.486C170.851 106.486 170.038 107.299 170.038 108.302C170.038 109.304 170.851 110.117 171.853 110.117Z" fill="#663717"/>
<path d="M107.342 100.148C108.099 100.148 108.713 99.5342 108.713 98.7774C108.713 98.0205 108.099 97.407 107.342 97.407C106.585 97.407 105.972 98.0205 105.972 98.7774C105.972 99.5342 106.585 100.148 107.342 100.148Z" fill="black"/>
<path d="M107.342 109.672C108.099 109.672 108.713 109.059 108.713 108.302C108.713 107.545 108.099 106.931 107.342 106.931C106.585 106.931 105.972 107.545 105.972 108.302C105.972 109.059 106.585 109.672 107.342 109.672Z" fill="black"/>
<path d="M171.408 100.148C172.165 100.148 172.778 99.5342 172.778 98.7774C172.778 98.0205 172.165 97.407 171.408 97.407C170.651 97.407 170.038 98.0205 170.038 98.7774C170.038 99.5342 170.651 100.148 171.408 100.148Z" fill="black"/>
<path d="M171.408 109.672C172.165 109.672 172.778 109.059 172.778 108.302C172.778 107.545 172.165 106.931 171.408 106.931C170.651 106.931 170.038 107.545 170.038 108.302C170.038 109.059 170.651 109.672 171.408 109.672Z" fill="black"/>
<path d="M190.559 158.698H192.649" stroke="black" stroke-width="2" stroke-miterlimit="10" stroke-linecap="round" stroke-linejoin="round"/>
<path d="M138.107 158.698H183.81" stroke="black" stroke-width="2" stroke-miterlimit="10" stroke-linecap="round" stroke-linejoin="round"/>
<path d="M122.245 158.698H130.091" stroke="black" stroke-width="2" stroke-miterlimit="10" stroke-linecap="round" stroke-linejoin="round"/>
<path d="M1 39.8506H12.8196" stroke="black" stroke-width="2" stroke-miterlimit="10" stroke-linecap="round" stroke-linejoin="round"/>
<path d="M18.4039 39.8506H24.6392" stroke="black" stroke-width="2" stroke-miterlimit="10" stroke-linecap="round" stroke-linejoin="round"/>
<path d="M123.479 32.1078C123.444 31.8337 123.41 31.5254 123.41 31.2171C123.41 28.168 125.877 25.667 128.96 25.667C132.009 25.667 134.51 28.1337 134.51 31.2171C134.51 34.2662 132.044 36.7672 128.96 36.7672" stroke="black" stroke-width="2" stroke-miterlimit="10" stroke-linecap="round" stroke-linejoin="round"/>
<path d="M105.252 36.7329H128.96" stroke="black" stroke-width="2" stroke-miterlimit="10" stroke-linecap="round" stroke-linejoin="round"/>
<path d="M137.97 51.4647C137.936 51.7388 137.902 52.0472 137.902 52.3555C137.902 55.4046 140.369 57.9056 143.452 57.9056C146.535 57.9056 149.002 55.4389 149.002 52.3555C149.002 49.2721 146.535 46.8054 143.452 46.8054" stroke="black" stroke-width="2" stroke-miterlimit="10" stroke-linecap="round" stroke-linejoin="round"/>
<path d="M122.314 46.8396H143.418" stroke="black" stroke-width="2" stroke-miterlimit="10" stroke-linecap="round" stroke-linejoin="round"/>
<path d="M114.708 46.8396H117.209" stroke="black" stroke-width="2" stroke-miterlimit="10" stroke-linecap="round" stroke-linejoin="round"/>
<path d="M96.3105 46.8396H108.541" stroke="black" stroke-width="2" stroke-miterlimit="10" stroke-linecap="round" stroke-linejoin="round"/>
<path d="M110.22 29.8811H88.2595" stroke="black" stroke-width="2" stroke-miterlimit="10" stroke-linecap="round" stroke-linejoin="round"/>
<path d="M18.4039 23.3716H26.6948" stroke="black" stroke-width="2" stroke-miterlimit="10" stroke-linecap="round" stroke-linejoin="round"/>
<path d="M41.8376 148.728C48.3276 148.728 53.5887 140.124 53.5887 129.509C53.5887 118.894 48.3276 110.289 41.8376 110.289C35.3477 110.289 30.0865 118.894 30.0865 129.509C30.0865 140.124 35.3477 148.728 41.8376 148.728Z" fill="#E97E1C"/>
<path opacity="0.74" d="M41.8375 110.289C41.5635 110.289 41.2894 110.323 41.0496 110.323C45.6404 112.927 48.9293 120.087 48.9293 128.447C48.9293 138.622 44.0987 146.947 37.9662 147.598C39.1653 148.283 40.5014 148.66 41.8375 148.66C48.3126 148.66 53.5886 140.061 53.5886 129.44C53.5886 118.888 48.3126 110.289 41.8375 110.289Z" fill="#E8531F"/>
<path d="M41.8376 148.728C48.3276 148.728 53.5887 140.124 53.5887 129.509C53.5887 118.894 48.3276 110.289 41.8376 110.289C35.3477 110.289 30.0865 118.894 30.0865 129.509C30.0865 140.124 35.3477 148.728 41.8376 148.728Z" stroke="black" stroke-width="2" stroke-miterlimit="10" stroke-linecap="round" stroke-linejoin="round"/>
<path d="M43.071 148.728C43.071 142.219 48.3128 136.977 54.8221 136.977C61.3315 136.977 66.5732 142.219 66.5732 148.728H43.071Z" fill="#FF6550"/>
<path opacity="0.4" d="M54.7876 136.977C53.7599 136.977 52.8006 137.114 51.8413 137.354C56.9117 138.656 60.6461 143.247 60.6461 148.728H66.5387C66.5387 142.219 61.2627 136.977 54.7876 136.977Z" fill="#FF7364"/>
<path d="M43.071 148.728C43.071 142.219 48.3128 136.977 54.8221 136.977C61.3315 136.977 66.5732 142.219 66.5732 148.728H43.071Z" stroke="black" stroke-width="2" stroke-miterlimit="10" stroke-linecap="round" stroke-linejoin="round"/>
<path opacity="0.38" d="M40.8097 127.761C42.3802 127.761 43.6533 126.488 43.6533 124.918C43.6533 123.347 42.3802 122.074 40.8097 122.074C39.2393 122.074 37.9662 123.347 37.9662 124.918C37.9662 126.488 39.2393 127.761 40.8097 127.761Z" fill="#FFB845"/>
<path opacity="0.6" d="M36.6642 131.495C37.5913 131.495 38.3429 130.744 38.3429 129.817C38.3429 128.89 37.5913 128.138 36.6642 128.138C35.7371 128.138 34.9855 128.89 34.9855 129.817C34.9855 130.744 35.7371 131.495 36.6642 131.495Z" fill="#E8531F"/>
<path opacity="0.38" d="M43.6533 136.36C44.7507 136.36 45.6404 135.471 45.6404 134.373C45.6404 133.276 44.7507 132.386 43.6533 132.386C42.5559 132.386 41.6663 133.276 41.6663 134.373C41.6663 135.471 42.5559 136.36 43.6533 136.36Z" fill="#FFB845"/>
</svg>
