<svg width="35" height="29" viewBox="0 0 35 29" fill="none" xmlns="http://www.w3.org/2000/svg">
<path d="M33.6189 20.5592H10.3857L11.5522 18.3699L30.9347 18.3375C31.5901 18.3375 32.1519 17.9062 32.269 17.3094L34.9532 3.46548C35.0234 3.10239 34.9181 2.72852 34.6606 2.44453C34.5333 2.30476 34.3746 2.19217 34.1954 2.11458C34.0162 2.03698 33.8208 1.99624 33.6228 1.99517L8.96556 1.91967L8.75488 1.00657C8.62223 0.424197 8.05261 0 7.40497 0H1.37722C1.01196 0 0.661655 0.133697 0.403377 0.371681C0.145099 0.609664 0 0.932438 0 1.269C0 1.60556 0.145099 1.92833 0.403377 2.16631C0.661655 2.4043 1.01196 2.53799 1.37722 2.53799H6.28915L7.2099 6.57146L9.47665 16.6839L6.55836 21.0733C6.4068 21.2617 6.31552 21.4855 6.29484 21.7193C6.27415 21.9531 6.32489 22.1876 6.44131 22.3962C6.6754 22.824 7.14748 23.0936 7.67027 23.0936H10.1204C9.59805 23.7328 9.31592 24.5115 9.31669 25.3116C9.31669 27.3463 11.1114 29 13.3196 29C15.5278 29 17.3225 27.3463 17.3225 25.3116C17.3225 24.51 17.0338 23.7299 16.5188 23.0936H22.804C22.2817 23.7328 21.9996 24.5115 22.0003 25.3116C22.0003 27.3463 23.795 29 26.0032 29C28.2115 29 30.0061 27.3463 30.0061 25.3116C30.0061 24.51 29.7174 23.7299 29.2024 23.0936H33.6228C34.3797 23.0936 35 22.5256 35 21.8246C34.9977 21.4884 34.8513 21.1667 34.5925 20.9296C34.3338 20.6925 33.9838 20.5594 33.6189 20.5592ZM9.53907 4.42172L32.0037 4.49002L29.8033 15.8427L12.1569 15.8715L9.53907 4.42172ZM13.3196 26.4476C12.6407 26.4476 12.0867 25.9372 12.0867 25.3116C12.0867 24.6861 12.6407 24.1757 13.3196 24.1757C13.9984 24.1757 14.5524 24.6861 14.5524 25.3116C14.5524 25.6129 14.4226 25.9019 14.1914 26.1149C13.9601 26.3279 13.6466 26.4476 13.3196 26.4476ZM26.0032 26.4476C25.3244 26.4476 24.7704 25.9372 24.7704 25.3116C24.7704 24.6861 25.3244 24.1757 26.0032 24.1757C26.6821 24.1757 27.2361 24.6861 27.2361 25.3116C27.2361 25.6129 27.1062 25.9019 26.875 26.1149C26.6438 26.3279 26.3302 26.4476 26.0032 26.4476Z" fill="white"/>
</svg>
