<svg width="198" height="54" viewBox="0 0 198 54" fill="none" xmlns="http://www.w3.org/2000/svg">
<path d="M75 16.6931H84.0943V18.3191H76.6656V23.4837H81.0662V25.1097H76.6656V33.2064H75V16.6931Z" fill="#C79634"/>
<path d="M92.7122 20.4115C93.5906 20.3928 94.4626 20.5652 95.2678 20.9167C96.0731 21.2682 96.7924 21.7905 97.376 22.4474C98.4752 23.6545 99.0712 25.2364 99.0416 26.8689C99.0558 28.5314 98.4157 30.1328 97.2594 31.3272C96.6829 31.9544 95.9788 32.4508 95.1945 32.783C94.4101 33.1152 93.5637 33.2755 92.7122 33.2531C91.8561 33.2822 91.0039 33.1265 90.2134 32.7964C89.423 32.4664 88.713 31.9698 88.1317 31.3405C87.0081 30.1434 86.3747 28.568 86.3568 26.9261C86.3389 25.2842 86.9379 23.6954 88.0351 22.474C88.6168 21.8095 89.337 21.2804 90.145 20.9241C90.9531 20.5678 91.8293 20.3928 92.7122 20.4115V20.4115ZM92.7122 21.9476C92.0837 21.942 91.461 22.0677 90.8839 22.3167C90.3069 22.5657 89.7881 22.9326 89.361 23.3937C88.9053 23.8535 88.5465 24.4 88.3056 25.001C88.0647 25.6019 87.9467 26.245 87.9585 26.8923C87.9535 27.759 88.1739 28.6121 88.5981 29.3679C88.9974 30.11 89.5978 30.7243 90.3304 31.1406C91.0622 31.5449 91.8845 31.7569 92.7205 31.7569C93.5565 31.7569 94.3789 31.5449 95.1107 31.1406C95.8387 30.7228 96.4344 30.1085 96.8296 29.3679C97.2507 28.611 97.4698 27.7584 97.4659 26.8923C97.477 26.2451 97.3586 25.6022 97.1178 25.0014C96.8769 24.4006 96.5185 23.854 96.0635 23.3937C95.6363 22.9326 95.1176 22.5657 94.5405 22.3167C93.9634 22.0677 93.3407 21.942 92.7122 21.9476V21.9476Z" fill="#DDA73A"/>
<path d="M107.729 20.4115C108.608 20.3928 109.48 20.5652 110.285 20.9167C111.09 21.2682 111.809 21.7905 112.393 22.4474C113.492 23.6545 114.088 25.2364 114.059 26.8689C114.082 28.5267 113.454 30.1275 112.31 31.3272C111.73 31.9587 111.02 32.4577 110.23 32.79C109.439 33.1224 108.586 33.2803 107.729 33.2531C106.873 33.2822 106.021 33.1265 105.231 32.7964C104.44 32.4664 103.73 31.9698 103.149 31.3405C102.025 30.1434 101.392 28.568 101.374 26.9261C101.356 25.2842 101.955 23.6954 103.052 22.474C103.634 21.8095 104.354 21.2804 105.162 20.9241C105.97 20.5678 106.846 20.3928 107.729 20.4115V20.4115ZM107.729 21.9476C107.101 21.942 106.478 22.0677 105.901 22.3167C105.324 22.5657 104.805 22.9326 104.378 23.3937C103.924 23.8541 103.566 24.4008 103.326 25.0017C103.087 25.6026 102.97 26.2454 102.982 26.8923C102.977 27.759 103.198 28.6121 103.622 29.3679C104.021 30.11 104.622 30.7243 105.354 31.1406C106.086 31.5449 106.908 31.7569 107.744 31.7569C108.58 31.7569 109.403 31.5449 110.134 31.1406C110.862 30.7228 111.458 30.1085 111.853 29.3679C112.274 28.611 112.494 27.7584 112.49 26.8923C112.501 26.2451 112.382 25.6022 112.141 25.0014C111.901 24.4006 111.542 23.854 111.087 23.3937C110.659 22.9317 110.139 22.5644 109.561 22.3154C108.983 22.0663 108.359 21.941 107.729 21.9476V21.9476Z" fill="#DDA73A"/>
<path d="M125.858 32.6667C124.974 33.0501 124.02 33.2453 123.056 33.2398C122.226 33.2512 121.401 33.0907 120.636 32.7685C119.87 32.4463 119.179 31.9692 118.606 31.3672C118.008 30.7804 117.536 30.0781 117.218 29.3031C116.9 28.5281 116.743 27.6966 116.757 26.859C116.741 26.0138 116.895 25.1741 117.211 24.3898C117.526 23.6056 117.996 22.8929 118.593 22.2941C119.494 21.365 120.664 20.7413 121.937 20.5107C123.211 20.28 124.525 20.4539 125.695 21.008C126.557 21.4412 127.313 22.0589 127.91 22.8173V16H129.469V27.5887C129.304 28.7552 128.894 29.8736 128.266 30.8707C127.603 31.6368 126.781 32.2495 125.858 32.6667V32.6667ZM126.621 30.3109C127.081 29.8437 127.443 29.2883 127.684 28.678C127.925 28.0677 128.04 27.415 128.023 26.759C128.034 25.8852 127.82 25.0233 127.4 24.2567C126.984 23.5114 126.366 22.8983 125.618 22.4874C124.872 22.0614 124.028 21.8374 123.17 21.8377C122.33 21.8359 121.505 22.0604 120.781 22.4874C120.031 22.9257 119.415 23.5605 118.999 24.3233C118.567 25.0783 118.337 25.9323 118.333 26.8023C118.332 27.6709 118.562 28.5239 118.999 29.2747C119.414 30.0246 120.023 30.6494 120.761 31.084C121.499 31.517 122.341 31.7415 123.196 31.7337C123.837 31.7472 124.473 31.6278 125.064 31.3829C125.656 31.138 126.191 30.773 126.634 30.3109H126.621Z" fill="#DDA73A"/>
<path d="M138.454 20.4116C139.332 20.3931 140.204 20.5655 141.009 20.917C141.814 21.2685 142.534 21.7907 143.117 22.4474C144.242 23.6422 144.856 25.2284 144.83 26.869C144.847 31.0895 144.847 33.2309 144.83 33.2931H143.164V30.5209C142.298 32.1402 140.721 33.0465 138.434 33.2398C137.578 33.2687 136.725 33.1129 135.935 32.7828C135.145 32.4528 134.434 31.9563 133.853 31.3272C132.729 30.1304 132.095 28.5545 132.078 26.9122C132.06 25.2698 132.661 23.681 133.76 22.4607C134.344 21.7961 135.068 21.268 135.879 20.9139C136.69 20.5598 137.569 20.3883 138.454 20.4116V20.4116ZM138.454 21.9476C137.825 21.942 137.202 22.0677 136.625 22.3168C136.048 22.5658 135.53 22.9326 135.102 23.3937C134.647 23.854 134.289 24.4006 134.048 25.0014C133.807 25.6022 133.689 26.2451 133.7 26.8923C133.704 27.7915 133.953 28.6725 134.419 29.4413C135.009 30.3556 135.855 31.0763 136.851 31.5138C139.716 32.1513 141.754 30.8485 142.964 27.6054C143.036 26.5938 142.924 25.5775 142.631 24.6066C142.41 24.1564 142.121 23.7428 141.775 23.3804C141.354 22.92 140.841 22.5542 140.268 22.3072C139.696 22.0602 139.077 21.9377 138.454 21.9476V21.9476Z" fill="#C79634"/>
<path d="M156.772 32.6667C155.889 33.0497 154.936 33.2449 153.974 33.2398C153.143 33.251 152.318 33.0906 151.551 32.7683C150.785 32.4461 150.093 31.9691 149.52 31.3672C148.922 30.7804 148.45 30.0781 148.132 29.3031C147.814 28.5281 147.658 27.6965 147.671 26.859C147.655 26.0138 147.809 25.1741 148.125 24.3898C148.44 23.6056 148.91 22.8929 149.507 22.2941C150.072 21.6904 150.757 21.2111 151.519 20.887C152.28 20.5628 153.1 20.4009 153.927 20.4116C154.856 20.4009 155.775 20.6051 156.612 21.008C157.474 21.4421 158.23 22.0597 158.827 22.8173V16H160.383V27.5887C160.218 28.7552 159.808 29.8736 159.181 30.8707C158.517 31.6368 157.695 32.2495 156.772 32.6667ZM157.535 30.3109C157.998 29.845 158.362 29.29 158.605 28.6796C158.847 28.0691 158.964 27.4158 158.947 26.759C158.957 25.8841 158.739 25.0217 158.314 24.2567C157.898 23.5114 157.28 22.8983 156.532 22.4874C155.786 22.0614 154.943 21.8374 154.084 21.8377C153.244 21.8359 152.419 22.0604 151.695 22.4874C150.945 22.9257 150.329 23.5605 149.913 24.3233C149.481 25.0783 149.251 25.9323 149.247 26.8023C149.247 27.6709 149.476 28.5239 149.913 29.2747C150.328 30.0246 150.937 30.6494 151.675 31.084C152.413 31.517 153.255 31.7415 154.11 31.7337C154.748 31.7454 155.382 31.625 155.971 31.3802C156.561 31.1353 157.093 30.7713 157.535 30.3109V30.3109Z" fill="#DDA73A"/>
<path d="M169.368 20.4116C170.246 20.3931 171.118 20.5656 171.923 20.9171C172.728 21.2686 173.448 21.7907 174.031 22.4474C175.129 23.6552 175.725 25.2367 175.697 26.869C175.717 28.5282 175.086 30.1291 173.938 31.3272C173.339 31.933 172.626 32.4139 171.84 32.7421C171.054 33.0703 170.211 33.2393 169.359 33.2393C168.507 33.2393 167.664 33.0703 166.878 32.7421C166.092 32.4139 165.379 31.933 164.78 31.3272C163.656 30.1304 163.022 28.5545 163.005 26.9122C162.987 25.2699 163.588 23.681 164.687 22.4608C165.27 21.7982 165.992 21.2714 166.8 20.9174C167.609 20.5634 168.485 20.3908 169.368 20.4116V20.4116ZM169.368 21.9476C168.739 21.942 168.116 22.0678 167.539 22.3168C166.962 22.5658 166.443 22.9326 166.016 23.3937C165.561 23.854 165.203 24.4006 164.962 25.0014C164.721 25.6022 164.603 26.2451 164.614 26.8923C164.609 27.7591 164.829 28.6122 165.253 29.368C165.654 30.1093 166.254 30.7234 166.986 31.1406C167.717 31.5449 168.54 31.757 169.376 31.757C170.212 31.757 171.034 31.5449 171.766 31.1406C172.495 30.7231 173.092 30.1088 173.488 29.368C173.908 28.6108 174.126 27.7582 174.121 26.8923C174.133 26.245 174.015 25.6019 173.774 25.001C173.533 24.4001 173.174 23.8536 172.719 23.3937C172.292 22.9326 171.773 22.5658 171.196 22.3168C170.619 22.0678 169.996 21.942 169.368 21.9476V21.9476Z" fill="#DDA73A"/>
<path d="M178.019 27.6387V26.1692C178.104 25.5496 178.275 24.9451 178.529 24.3733C178.933 23.2504 179.662 22.2736 180.624 21.5677C181.499 20.9746 182.226 20.6781 182.806 20.6781C183.295 20.6951 183.771 20.8411 184.185 21.1013L183.372 22.4141C182.683 22.1642 181.997 22.3674 181.32 23.0272C180.683 23.6227 180.2 24.3635 179.911 25.1863C179.718 25.8794 179.621 27.1855 179.621 29.0747V33.2064H178.019V27.6387Z" fill="#DDA73A"/>
<path d="M191.288 20.4116C192.166 20.3931 193.038 20.5655 193.843 20.917C194.648 21.2685 195.368 21.7907 195.951 22.4474C197.076 23.6422 197.69 25.2284 197.664 26.869C197.681 31.0895 197.681 33.2309 197.664 33.2931H195.998V30.5209C195.132 32.1402 193.555 33.0465 191.268 33.2398C190.412 33.2687 189.559 33.1129 188.769 32.7828C187.979 32.4528 187.268 31.9563 186.687 31.3272C185.563 30.1304 184.929 28.5545 184.911 26.9122C184.894 25.2698 185.495 23.681 186.594 22.4607C187.178 21.7961 187.902 21.268 188.713 20.9139C189.524 20.5598 190.403 20.3883 191.288 20.4116V20.4116ZM191.288 21.9476C190.658 21.9411 190.034 22.0664 189.456 22.3154C188.877 22.5645 188.358 22.9318 187.93 23.3937C187.475 23.854 187.116 24.4006 186.875 25.0014C186.635 25.6022 186.516 26.2451 186.527 26.8923C186.532 27.7915 186.78 28.6725 187.247 29.4413C187.837 30.3556 188.682 31.0763 189.679 31.5138C192.543 32.1513 194.581 30.8485 195.791 27.6054C195.864 26.5938 195.751 25.5775 195.458 24.6066C195.237 24.1564 194.949 23.7428 194.602 23.3804C194.182 22.9208 193.67 22.5556 193.098 22.3086C192.527 22.0616 191.91 21.9386 191.288 21.9476Z" fill="#DDA73A"/>
<path d="M13.4341 1.02591C14.1274 0.932637 14.7999 0.860688 15.4854 0.794067C14.7999 0.860688 14.1274 0.935302 13.4341 1.02591C12.6462 1.11813 11.8653 1.26593 11.0972 1.46826C10.9622 1.51623 10.8375 1.55087 10.7207 1.58818C10.8427 1.55087 10.9622 1.51623 11.0998 1.47093C11.867 1.26771 12.647 1.11901 13.4341 1.02591V1.02591Z" fill="#CF2528"/>
<path d="M6.35303 10.7205C6.76402 10.2192 7.23504 9.76469 7.75664 9.36611C8.30999 8.96849 8.90388 8.62413 9.52947 8.33813C8.90347 8.62341 8.30951 8.96782 7.75664 9.36611C7.23514 9.76479 6.76413 10.2193 6.35303 10.7205Z" fill="#CF2528"/>
<path d="M27.6347 27.7369C28.0169 28.0175 28.4541 28.2129 28.9173 28.3101C29.3805 28.4073 29.859 28.4041 30.3209 28.3006C31.3441 28.0985 32.4651 27.4763 33.594 26.3488C34.8359 25.1016 35.8033 23.6059 36.4336 21.9585C36.9623 20.4667 37.0152 19.1079 36.2591 18.382C35.5029 17.656 34.0964 17.7198 32.5576 18.2729C30.8994 18.9039 29.3876 19.8705 28.1159 21.1129C26.9526 22.2377 26.3392 23.3466 26.1594 24.3518C26.0653 24.8087 26.074 25.2811 26.1847 25.7342C26.2954 26.1874 26.5053 26.61 26.7992 26.9711L27.6347 27.7369ZM26.3868 26.035C26.2176 26.5669 22.4209 29.4707 20.2715 33.0339C19.1054 35.0392 18.3293 37.2492 17.9845 39.5462C17.8423 40.6213 17.8299 41.7097 17.9475 42.7878C18.06 43.9028 18.3325 44.9955 18.7565 46.0319C19.1775 47.049 19.7372 48.0021 20.4195 48.8639C21.0684 49.6841 21.8142 50.4217 22.6404 51.0604C23.0387 51.3681 23.4526 51.6547 23.8804 51.9193C24.3073 52.1825 24.7487 52.4213 25.2023 52.6346C25.6557 52.8517 26.1199 53.0452 26.593 53.2143C27.1145 53.3946 27.6519 53.5245 28.1978 53.6026H28.2719H28.3459H28.5072H28.6685C30.5236 53.4684 32.3462 53.0422 34.0699 52.3395C35.7934 51.6437 37.4247 50.7362 38.9267 49.6378C40.3667 48.5973 41.7473 47.476 43.0618 46.2792C44.3901 45.0727 45.6522 43.7944 46.8425 42.45C47.4506 41.7693 48.0376 41.0832 48.6087 40.3706C49.1797 39.6579 49.7323 38.924 50.269 38.1395L50.9934 37.0546L51.7205 35.967L52.1092 35.3341L52.4978 34.7039L52.8574 34.071L53.217 33.4355C54.1361 31.7637 54.9417 30.0313 55.6282 28.2501C56.3366 26.4097 56.9058 24.5181 57.3308 22.5914C57.3864 22.3255 57.434 22.1021 57.4789 21.8575C57.5239 21.6128 57.5714 21.3576 57.6243 21.0305C57.6561 20.8204 57.6904 20.605 57.7221 20.3684C57.7539 20.1317 57.7882 19.8711 57.82 19.5706C57.8781 19.0388 57.9231 18.491 57.9469 17.9751C57.9707 17.4592 57.9786 16.9114 57.9601 16.3796C57.9339 15.2498 57.8109 14.1244 57.5926 13.0158C57.3741 11.9046 57.0573 10.8154 56.6461 9.76095C56.5403 9.49504 56.4319 9.24242 56.3182 8.98714C56.2046 8.73186 56.0856 8.47924 55.9587 8.22662C55.9164 8.13886 55.8371 7.98995 55.7524 7.83572C55.6678 7.68149 55.5753 7.51928 55.5039 7.40494C55.4325 7.29059 55.3506 7.13902 55.2713 7.02468C55.1919 6.91033 55.1073 6.77737 55.0254 6.65771C54.9434 6.53805 54.8271 6.39179 54.7213 6.25086C54.6156 6.10992 54.5098 5.98494 54.4067 5.86262C53.9044 5.5967 53.3967 5.37068 52.8918 5.16592C52.3868 4.96117 51.8765 4.78566 51.3715 4.63409L51.1732 4.57559L50.9749 4.51974L50.7872 4.47188L50.5995 4.42667L50.5202 4.40806L50.4382 4.3921L50.1077 4.32031L49.7799 4.24851C49.4917 4.2033 49.1718 4.14746 48.8572 4.10226C48.5638 4.05635 48.2681 4.02617 47.9715 4.01184C44.18 3.7759 40.3941 4.55489 36.9993 6.26947C33.5662 8.01314 30.5802 10.5313 28.2745 13.6274C28.0842 13.5449 27.8938 13.4705 27.7008 13.396L27.1218 13.1833L26.6221 12.6275L26.1224 12.0718C25.3616 11.2387 24.5112 10.4931 23.5869 9.84871C22.659 9.19285 21.6678 8.6325 20.6284 8.17609C20.2542 8.01553 19.8721 7.8744 19.4836 7.75329C19.0976 7.63451 18.7063 7.52814 18.3097 7.43419C18.7036 7.52726 19.1029 7.63362 19.4836 7.75594C19.8643 7.87827 20.253 8.02186 20.6284 8.17609C21.6678 8.6325 22.659 9.19285 23.5869 9.84871C24.5113 10.494 25.3617 11.2405 26.1224 12.0744L27.2064 13.2843L28.293 14.4916L29.5171 13.2817L30.7386 12.0691C30.966 11.8431 31.2145 11.6091 31.4657 11.3884C31.7169 11.1677 31.9627 10.9629 32.1901 10.7954C32.4968 10.564 32.7876 10.3593 33.0732 10.1678C33.3587 9.97635 33.6469 9.79818 33.9509 9.62002C34.5344 9.27781 35.1394 8.97403 35.762 8.71058C36.3715 8.45472 36.9978 8.24148 37.6365 8.07239C37.9538 7.98995 38.2711 7.92081 38.5936 7.85965C38.9162 7.79849 39.2361 7.75329 39.5613 7.71606C39.7358 7.69478 39.8838 7.68149 40.0319 7.67085C40.1799 7.66022 40.328 7.64958 40.5051 7.6416H40.6532H40.8039H40.9652H41.2481H41.5283C41.8456 7.6416 42.1734 7.66553 42.4854 7.69478C42.7974 7.72403 43.0909 7.76658 43.3473 7.80381L43.6381 7.86231L43.929 7.92081L44.077 7.95006L44.2251 7.98197C44.1881 7.98197 44.2251 7.98197 44.2542 7.98197L44.3731 8.01388C44.5212 8.05111 44.6693 8.091 44.8147 8.13621C44.9601 8.18141 45.1029 8.22928 45.2403 8.28246C45.3721 8.32155 45.501 8.36952 45.6264 8.42605C45.7348 8.47392 45.8352 8.51912 45.9701 8.56965L46.2344 8.71058L46.4988 8.85152L46.5517 8.87811L46.6072 8.9047L46.7051 8.96586L46.8029 9.02702C47.0699 9.19094 47.3285 9.36845 47.5775 9.55886C47.8234 9.74234 48.0534 9.9338 48.2702 10.1306C48.487 10.3274 48.6853 10.5295 48.873 10.7369C49.0558 10.939 49.2262 11.1521 49.3833 11.3751L49.4944 11.5426C49.5314 11.5958 49.5657 11.6543 49.6001 11.7101C49.6345 11.766 49.6583 11.8085 49.6794 11.8404C49.7006 11.8723 49.7244 11.9175 49.7799 12.0239C49.8354 12.1303 49.9174 12.2898 49.9808 12.4414C50.0443 12.593 50.1051 12.7312 50.1659 12.8722C50.3947 13.4563 50.5717 14.0596 50.6947 14.6751C50.8236 15.3056 50.8979 15.9462 50.9168 16.5897C50.9326 16.9327 50.9326 17.2917 50.9168 17.6533C50.9009 18.015 50.8824 18.3633 50.856 18.6984C50.856 18.842 50.8295 19.0228 50.8057 19.2302C50.7819 19.4376 50.7529 19.6557 50.7211 19.8817C50.7079 19.9961 50.6788 20.1742 50.6471 20.3657C50.6154 20.5572 50.5784 20.7646 50.544 20.9348C50.238 22.4545 49.8209 23.9495 49.2961 25.4075C48.7656 26.8959 48.1476 28.3512 47.4453 29.7658L47.181 30.2737L46.9166 30.7843L46.6522 31.2656L46.3878 31.7469L45.7242 32.8079L45.0553 33.8929C44.6428 34.547 44.1987 35.2038 43.7333 35.8527C43.268 36.5015 42.7815 37.1344 42.2871 37.7486C41.7927 38.3629 41.2772 38.9772 40.751 39.5728C40.2249 40.1685 39.6935 40.7508 39.1224 41.3172C38.8501 41.6151 38.5857 41.9023 38.3213 42.1682L37.4832 42.9898L37.0205 43.4153L36.5578 43.8434L36.386 44.0003L36.2168 44.1572L35.9682 44.362L35.7223 44.5667C34.6473 45.4863 33.4689 46.2761 32.2113 46.9201C31.0035 47.5385 29.7103 47.9714 28.375 48.2045C28.1382 48.1694 27.9034 48.1214 27.6717 48.0609C27.4176 47.9958 27.167 47.9177 26.9208 47.8269C26.6062 47.7099 26.2942 47.5742 25.9876 47.4253C25.6835 47.274 25.3878 47.1062 25.1018 46.9228C24.5313 46.567 24.0073 46.1409 23.542 45.6543C23.0848 45.1799 22.6967 44.6427 22.3892 44.0588C21.5182 42.337 21.1908 40.3887 21.4506 38.4746C21.715 34.7518 28.7108 27.4098 28.7901 27.221" fill="#DDA73A"/>
<path d="M28.2905 4.76467C33.614 0.425168 40.6152 -1.22411 47.2893 0.967934C47.5135 1.03611 47.7773 1.14099 48.0437 1.25112C47.7799 1.14099 47.5162 1.03611 47.2893 0.967934C40.6231 -1.22673 33.614 0.425168 28.2958 4.76467C26.586 3.47786 24.692 2.45264 22.6769 1.72309C22.1493 1.53168 21.5926 1.39008 21.0439 1.24587C21.5926 1.39008 22.1413 1.53168 22.6769 1.72309C24.6897 2.45415 26.5817 3.47927 28.2905 4.76467V4.76467Z" fill="#CF2528"/>
<path d="M9.61429 36.5287C9.61429 36.5128 10.3706 36.0274 10.3679 35.9982C10.3679 35.9027 7.0509 28.198 5.26236 22.676C4.66477 20.898 4.34 19.0398 4.2991 17.1646L4.31768 16.7668V16.719C4.36458 16.109 4.45325 15.5028 4.58304 14.9049C4.71239 14.3291 4.88356 13.7636 5.09518 13.2127C5.19602 12.921 5.31013 12.7141 5.41096 12.4781C5.5118 12.242 5.76389 11.7381 5.82493 11.6559C6.02723 11.315 6.25709 10.9912 6.51221 10.6878C6.91206 10.1696 7.37265 9.70124 7.88413 9.29272C8.42347 8.88013 9.00418 8.52459 9.61694 8.23182C9.96468 8.04665 10.3246 7.88537 10.6943 7.74911C10.8328 7.69386 10.9757 7.65039 11.1215 7.61915L11.3869 7.53427C11.4373 7.51571 11.5302 7.49714 11.6045 7.47858L12.2997 7.32209C12.3555 7.32209 12.443 7.30088 12.5386 7.29027C12.8756 7.25048 13.409 7.2107 13.8654 7.19213L15.7043 7.14439H15.7866H15.8821H15.9936L16.3545 7.17887C16.4765 7.17887 16.6782 7.22131 16.8003 7.23722C16.9223 7.25313 17.0975 7.27435 17.2434 7.29822C17.5406 7.34862 17.8299 7.43349 18.1218 7.50245C18.9178 7.68026 19.6965 7.92788 20.449 8.24242C22.5346 9.14643 24.4117 10.47 25.9632 12.1306L26.9689 13.2711C27.3537 13.4117 27.7438 13.5549 28.1232 13.7167C32.8812 7.44144 40.1123 3.63812 47.89 4.11022C48.4986 4.15832 49.1044 4.2371 49.7051 4.34627L50.3658 4.48949L50.5277 4.52397L50.9045 4.6168L51.3025 4.73084C52.3539 5.04387 53.3737 5.45409 54.3489 5.95618L54.3967 5.9774C54.3383 5.90314 54.2693 5.85009 54.2109 5.77848C53.753 5.21181 53.2536 4.6799 52.7169 4.18713C51.9301 3.49061 51.0799 2.86905 50.1774 2.33056L50.0155 2.23508L49.8484 2.13164L49.5405 1.9672L49.4052 1.89824L48.8506 1.60119C48.6091 1.49775 48.3385 1.37575 48.0704 1.26435C47.8024 1.15296 47.5397 1.04687 47.3115 0.977911C40.6058 -1.23937 33.5552 0.428895 28.2055 4.81837C26.4843 3.52144 24.5793 2.48809 22.5533 1.75237C22.0226 1.55875 21.4627 1.41553 20.9107 1.26966C19.9537 1.00482 18.9779 0.813299 17.9917 0.696772C17.607 0.656988 17.2195 0.622509 16.8295 0.603943L16.2536 0.585378H15.6247L15.4894 0.598639C14.7888 0.664945 14.1015 0.736556 13.393 0.829385C12.5877 0.92086 11.7897 1.06797 11.0048 1.26966C10.8641 1.31475 10.7394 1.35188 10.6174 1.38636C10.4343 1.44205 10.2432 1.5004 9.98049 1.59589C9.71778 1.69137 9.52406 1.77889 9.2932 1.86111C9.12337 1.92742 8.93762 1.98842 8.78636 2.06268C7.2637 2.74448 5.86412 3.67288 4.64407 4.81041C3.33521 6.00831 2.27253 7.44972 1.51546 9.05401C1.38809 9.31924 1.31379 9.5049 1.2501 9.66403C1.18641 9.82317 1.13069 9.96904 1.04312 10.1945C0.891863 10.6374 0.724684 11.0936 0.629154 11.502C0.533624 11.9105 0.400943 12.3932 0.318681 12.8441C0.24438 13.2446 0.180695 13.6398 0.124969 14.0509C0.029039 14.896 -0.0117378 15.7465 0.00290082 16.597V16.597C0.00290082 16.6607 0.00290082 16.7164 0.00290082 16.7747C0.00290082 16.9206 0.00290219 17.0638 0.0188239 17.2574C0.0188239 17.3662 0.034746 17.4351 0.0400533 17.5226C0.0586285 17.7003 0.07455 17.8436 0.0957789 18.0027L0.284185 19.175C0.501781 20.3659 4.54589 30.0837 5.11111 31.1234C5.30482 31.4841 8.36974 36.9106 8.4467 37.2236L9.61429 36.5287ZM8.57673 37.0936C7.16235 38.4754 6.54936 40.3532 7.28176 41.9843L11.8115 49.9013C11.8366 49.9362 11.8688 49.9654 11.906 49.9871C11.9431 50.0088 11.9844 50.0224 12.0272 50.0272C12.0699 50.0319 12.1132 50.0277 12.1542 50.0147C12.1952 50.0017 12.233 49.9802 12.2652 49.9517C12.4828 49.7767 12.6102 49.5273 12.4749 49.3735L9.18175 41.5998C9.10745 41.4566 9.22951 41.2019 9.43384 41.0905C9.63817 40.9791 9.82658 40.9341 9.90353 41.0905L13.1967 48.8616C13.255 49.0712 13.4833 49.0977 13.6849 48.9863C13.7794 48.927 13.8517 48.8382 13.8906 48.7337C13.9295 48.6291 13.9327 48.5147 13.8999 48.4081L10.612 40.6105C10.5324 40.4673 10.6572 40.2126 10.8774 40.1013C11.0977 39.9899 11.2648 39.9448 11.3418 40.1013L14.6296 47.8776C14.696 48.0872 14.9189 48.111 15.1232 47.9997C15.2182 47.9402 15.2909 47.851 15.3298 47.7459C15.3687 47.6408 15.3716 47.5258 15.3381 47.4188L12.045 39.6451C11.9654 39.5018 12.0928 39.2499 12.2944 39.1385C12.4961 39.0271 12.6872 38.9794 12.7641 39.1226L16.0546 46.8963C16.1156 47.1058 16.3438 47.1324 16.5455 47.021H16.6013C16.7525 46.9043 16.8666 46.6497 16.7976 46.5064L14.0193 37.4463C13.3108 35.8683 12.0238 35.3564 10.3812 36.0009L8.57673 37.0936Z" fill="#C79634"/>
</svg>
