<svg width="17" height="17" viewBox="0 0 17 17" fill="none" xmlns="http://www.w3.org/2000/svg">
<path fill-rule="evenodd" clip-rule="evenodd" d="M5.97839 1.72839H11.0217C13.3689 1.72839 15.2717 3.63118 15.2717 5.97839V11.0217C15.2717 13.3689 13.3689 15.2717 11.0217 15.2717H5.97839C3.63118 15.2717 1.72839 13.3689 1.72839 11.0217V5.97839C1.72839 3.63118 3.63118 1.72839 5.97839 1.72839ZM9.13048 12.4171L12.6721 8.87548L12.6792 8.88256C12.8864 8.67515 12.8864 8.33914 12.6792 8.13173L9.13756 4.59006C8.92631 4.38272 8.58698 4.38589 8.37964 4.59714C8.17231 4.80839 8.17548 5.14772 8.38673 5.35506L11.0146 7.97589H4.69631C4.40291 7.97589 4.16506 8.21374 4.16506 8.50714C4.16506 8.80054 4.40291 9.03839 4.69631 9.03839H11.0076L8.37964 11.6592C8.17249 11.8666 8.17249 12.2026 8.37964 12.4101C8.47754 12.513 8.61302 12.5718 8.75506 12.573C8.89531 12.5699 9.02929 12.5143 9.13048 12.4171Z" fill="#0095DA"/>
</svg>
