<svg width="32" height="28" viewBox="0 0 32 28" fill="none" xmlns="http://www.w3.org/2000/svg">
<path fill-rule="evenodd" clip-rule="evenodd" d="M1.7832 0.083313H3.44987L3.5332 0.0999797C5.84347 0.144794 7.86209 1.67222 8.5332 3.88331L8.86654 5.03331H26.2499C27.7849 5.0403 29.2425 5.70837 30.2499 6.86665C31.2544 8.03227 31.6989 9.57889 31.4665 11.1L30.4665 18C30.1335 20.6448 27.8988 22.6376 25.2332 22.6666H15.4332C13.092 22.658 11.0303 21.1235 10.3499 18.8833L6.1332 4.66665C5.81031 3.44695 4.71154 2.59387 3.44987 2.58331H1.7832C1.09285 2.58331 0.533203 2.02367 0.533203 1.33331C0.533203 0.642957 1.09285 0.083313 1.7832 0.083313ZM12.7499 18.0833C13.1037 19.27 14.1949 20.0833 15.4332 20.0833H25.2332C26.6127 20.0683 27.7808 19.062 27.9999 17.7L28.9999 10.7833C29.1361 9.97821 28.914 9.15376 28.3919 8.52594C27.8698 7.89813 27.0996 7.52951 26.2832 7.51665H9.61654L12.7499 18.0833Z" fill="#5C5C5F"/>
<path d="M15.0495 24.6666C14.129 24.6666 13.3828 25.4128 13.3828 26.3333C13.3828 27.2538 14.129 28 15.0495 28C15.97 28 16.7161 27.2538 16.7161 26.3333C16.7161 25.4128 15.97 24.6666 15.0495 24.6666Z" fill="#5C5C5F"/>
<path d="M25.0495 24.6666C24.129 24.6666 23.3828 25.4128 23.3828 26.3333C23.3828 27.2538 24.129 28 25.0495 28C25.97 28 26.7161 27.2538 26.7161 26.3333C26.7161 25.4128 25.97 24.6666 25.0495 24.6666Z" fill="#5C5C5F"/>
</svg>
