<svg width="21" height="21" viewBox="0 0 21 21" fill="none" xmlns="http://www.w3.org/2000/svg">
<g clip-path="url(#clip0_768_286)">
<path d="M20.9595 11.47C20.771 9.57351 19.9237 7.78557 18.5737 6.43552C17.42 5.28186 16.0079 4.54049 14.522 4.21084V3.1687C15.1289 3.01772 15.58 2.46839 15.58 1.81545C15.58 1.04648 14.9544 0.420898 14.1854 0.420898H11.2323C10.4633 0.420898 9.83771 1.04648 9.83771 1.81545C9.83771 2.46835 10.2888 3.01768 10.8956 3.1687V4.21375C9.41434 4.5448 8.00691 5.28514 6.85648 6.43556C6.60473 6.68732 6.37257 6.95143 6.16007 7.22591C6.14977 7.22513 6.13948 7.22435 6.12898 7.22435H3.20612C2.97963 7.22435 2.79596 7.40798 2.79596 7.63451C2.79596 7.86104 2.97963 8.04467 3.20612 8.04467H5.60196C5.30123 8.54815 5.05874 9.07689 4.87417 9.62118H0.410163C0.183671 9.62118 0 9.80481 0 10.0313C0 10.2579 0.183671 10.4415 0.410163 10.4415H4.64239C4.52418 10.9604 4.45634 11.4885 4.43882 12.018H2.62504C2.39855 12.018 2.21488 12.2017 2.21488 12.4282C2.21488 12.6547 2.39855 12.8384 2.62504 12.8384H4.45191C4.48652 13.3693 4.57188 13.8974 4.70801 14.4149H2.05081C1.82432 14.4149 1.64065 14.5985 1.64065 14.8251C1.64065 15.0516 1.82432 15.2352 2.05081 15.2352H4.96978C5.37215 16.2996 6.00097 17.2973 6.85648 18.1528C8.20781 19.5041 9.99759 20.3516 11.8961 20.5392C12.167 20.5659 12.4382 20.5792 12.709 20.5792C14.3095 20.5792 15.8897 20.116 17.2305 19.2428C17.4203 19.1192 17.474 18.8651 17.3504 18.6753C17.2268 18.4854 16.9727 18.4318 16.7829 18.5554C13.8479 20.4666 9.91716 20.0534 7.43654 17.5728C4.52594 14.6622 4.52594 9.9263 7.43654 7.01566C10.3471 4.1051 15.083 4.1051 17.9936 7.01566C20.4709 9.49304 20.8864 13.4204 18.9815 16.354C18.8581 16.5439 18.9121 16.798 19.1021 16.9213C19.2922 17.0447 19.5461 16.9907 19.6695 16.8007C20.6873 15.2333 21.1454 13.3402 20.9595 11.47ZM10.658 1.81549C10.658 1.49885 10.9156 1.24126 11.2323 1.24126H14.1854C14.5021 1.24126 14.7597 1.49885 14.7597 1.81549C14.7597 2.13214 14.5021 2.38972 14.1854 2.38972H14.1119H11.3058H11.2323C10.9156 2.38972 10.658 2.1321 10.658 1.81549ZM11.716 4.07274V3.21005H13.7017V4.07126C13.0423 3.99284 12.3752 3.99333 11.716 4.07274Z" fill="white"/>
<path d="M18.2839 17.4524C18.1756 17.4524 18.0702 17.4963 17.9939 17.5726C17.9172 17.6489 17.8737 17.7547 17.8737 17.8625C17.8737 17.9704 17.9172 18.0762 17.9939 18.1525C18.0702 18.2292 18.1756 18.2727 18.2839 18.2727C18.3917 18.2727 18.4972 18.2292 18.5739 18.1525C18.6501 18.0762 18.694 17.9704 18.694 17.8625C18.694 17.7547 18.6502 17.6489 18.5739 17.5726C18.4972 17.4963 18.3917 17.4524 18.2839 17.4524Z" fill="white"/>
<path d="M12.7151 5.93127C9.20663 5.93127 6.35226 8.7856 6.35226 12.2941C6.35226 15.8026 9.20663 18.6569 12.7151 18.6569C16.2235 18.6569 19.0779 15.8026 19.0779 12.2941C19.0779 8.7856 16.2235 5.93127 12.7151 5.93127ZM12.7151 17.8366C9.65891 17.8366 7.17259 15.3502 7.17259 12.2941C7.17259 9.23797 9.65891 6.7516 12.7151 6.7516C15.7712 6.7516 18.2576 9.23797 18.2576 12.2941C18.2576 15.3502 15.7712 17.8366 12.7151 17.8366Z" fill="white"/>
<path d="M15.3096 9.11952L13.278 11.151C13.1082 11.067 12.9171 11.0196 12.7151 11.0196C12.513 11.0196 12.322 11.067 12.1521 11.151L11.2429 10.2418C11.0826 10.0816 10.823 10.0816 10.6628 10.2418C10.5026 10.402 10.5026 10.6617 10.6628 10.8219L11.572 11.7311C11.4879 11.901 11.4405 12.092 11.4405 12.2941C11.4405 12.9968 12.0122 13.5686 12.7151 13.5686C13.4179 13.5686 13.9896 12.9968 13.9896 12.2941C13.9896 12.092 13.9421 11.901 13.8581 11.7311L15.83 9.75916L15.8896 9.69957C16.0498 9.5394 16.0498 9.27968 15.8896 9.11952C15.7295 8.95935 15.4698 8.95935 15.3096 9.11952ZM12.7151 12.7483C12.4646 12.7483 12.2608 12.5445 12.2608 12.2941C12.2608 12.0436 12.4646 11.8399 12.7151 11.8399C12.9655 11.8399 13.1693 12.0436 13.1693 12.2941C13.1693 12.5445 12.9655 12.7483 12.7151 12.7483Z" fill="white"/>
<path d="M17.1006 11.8889H16.7206C16.4941 11.8889 16.3104 12.0725 16.3104 12.2991C16.3104 12.5256 16.4941 12.7092 16.7206 12.7092H17.1006C17.3271 12.7092 17.5107 12.5256 17.5107 12.2991C17.5107 12.0725 17.3271 11.8889 17.1006 11.8889Z" fill="white"/>
<path d="M8.70956 11.8789H8.32959C8.1031 11.8789 7.91943 12.0625 7.91943 12.2891C7.91943 12.5156 8.1031 12.6992 8.32959 12.6992H8.70956C8.93605 12.6992 9.11971 12.5156 9.11971 12.2891C9.11971 12.0625 8.93605 11.8789 8.70956 11.8789Z" fill="white"/>
<path d="M12.7202 8.69882C12.9466 8.69882 13.1303 8.51519 13.1303 8.28866V7.90869C13.1303 7.68216 12.9466 7.49854 12.7202 7.49854C12.4937 7.49854 12.31 7.68216 12.31 7.90869V8.28866C12.31 8.51519 12.4937 8.69882 12.7202 8.69882Z" fill="white"/>
<path d="M12.71 15.8894C12.4835 15.8894 12.2999 16.073 12.2999 16.2996V16.6795C12.2999 16.9061 12.4835 17.0897 12.71 17.0897C12.9365 17.0897 13.1202 16.9061 13.1202 16.6795V16.2996C13.1202 16.073 12.9365 15.8894 12.71 15.8894Z" fill="white"/>
<path d="M0.410156 14.4148C0.302285 14.4148 0.196465 14.4587 0.120176 14.535C0.0438867 14.6113 0 14.7171 0 14.825C0 14.9332 0.0438457 15.0386 0.120176 15.1149C0.196506 15.1912 0.302285 15.2351 0.410156 15.2351C0.518027 15.2351 0.623848 15.1912 0.700096 15.1149C0.776385 15.0386 0.820312 14.9328 0.820312 14.825C0.820312 14.7171 0.776426 14.6113 0.700096 14.535C0.623848 14.4587 0.518027 14.4148 0.410156 14.4148Z" fill="white"/>
</g>
<defs>
<clipPath id="clip0_768_286">
<rect width="21" height="21" fill="white"/>
</clipPath>
</defs>
</svg>
