<svg width="37" height="37" viewBox="0 0 37 37" fill="none" xmlns="http://www.w3.org/2000/svg">
<path d="M32.375 6.9375H4.625C4.01169 6.9375 3.42349 7.18114 2.98982 7.61482C2.55614 8.04849 2.3125 8.63669 2.3125 9.25V27.75C2.3125 28.3633 2.55614 28.9515 2.98982 29.3852C3.42349 29.8189 4.01169 30.0625 4.625 30.0625H32.375C32.9883 30.0625 33.5765 29.8189 34.0102 29.3852C34.4439 28.9515 34.6875 28.3633 34.6875 27.75V9.25C34.6875 8.63669 34.4439 8.04849 34.0102 7.61482C33.5765 7.18114 32.9883 6.9375 32.375 6.9375ZM29.8312 9.25L18.5 17.0894L7.16875 9.25H29.8312ZM4.625 27.75V10.3022L17.8409 19.4481C18.0345 19.5824 18.2644 19.6543 18.5 19.6543C18.7356 19.6543 18.9655 19.5824 19.1591 19.4481L32.375 10.3022V27.75H4.625Z" fill="#A5A5A5"/>
</svg>
