<svg width="124" height="199" viewBox="0 0 124 199" fill="none" xmlns="http://www.w3.org/2000/svg">
<path d="M17.0078 95.3566C17.0078 95.3566 1.11082 93.2989 0.0819671 105.607C-0.946881 117.916 7.77324 156.36 22.6664 156.36C37.5597 156.36 59.5795 152.771 59.5795 152.771L55.9911 136.874C55.9911 136.874 29.7931 139.384 27.2712 130.212C24.7492 121.04 29.3163 96.8873 17.0078 95.3566Z" fill="#376420"/>
<path d="M106.217 50.1878C106.217 50.1878 122.113 48.1426 123.142 60.4512C124.171 72.7597 115.438 111.191 100.583 111.191C85.7274 111.191 63.6699 107.603 63.6699 107.603L67.2583 91.7056C67.2583 91.7056 93.4437 94.215 95.9657 85.0432C98.4876 75.8713 93.9205 51.7185 106.217 50.1878Z" fill="#376420"/>
<path d="M45.2634 196.422L39.6173 15.1441C39.6173 15.1441 41.675 0 60.646 0C79.6169 0 84.2342 19.3097 84.2342 30.1126C84.2342 40.9155 78.5881 196.46 78.5881 196.46L45.2634 196.422Z" fill="#49852A"/>
<path d="M53.3437 182.796C52.7228 181.758 52.0485 180.753 51.3236 179.785C51.1354 179.584 50.8217 179.848 50.9472 180.074C51.5244 181.102 52.0262 182.207 52.6912 183.173C52.9673 183.587 53.6448 183.185 53.3437 182.796Z" fill="white"/>
<path d="M59.0525 170.061C58.5199 168.846 58.2056 167.546 58.124 166.222C58.1063 166.117 58.0518 166.021 57.9703 165.952C57.8888 165.883 57.7854 165.845 57.6786 165.845C57.5718 165.845 57.4685 165.883 57.387 165.952C57.3054 166.021 57.251 166.117 57.2332 166.222C57.2968 167.626 57.6112 169.007 58.1617 170.3C58.375 170.852 59.2784 170.638 59.0525 170.061Z" fill="white"/>
<path d="M69.6547 171.366C69.094 172.637 68.4134 173.851 67.6221 174.992C67.2833 175.431 67.8856 176.046 68.2243 175.607C69.0682 174.428 69.7912 173.167 70.3824 171.843C70.6208 171.303 69.8931 170.877 69.6547 171.366Z" fill="white"/>
<path d="M62.7413 184.277C62.5507 183.553 62.4661 182.805 62.4904 182.056C62.4904 181.963 62.4533 181.873 62.3875 181.808C62.3216 181.742 62.2322 181.705 62.139 181.705C62.0459 181.705 61.9565 181.742 61.8906 181.808C61.8247 181.873 61.7877 181.963 61.7877 182.056C61.7391 182.869 61.811 183.685 62.001 184.478C62.0395 184.561 62.1064 184.628 62.1896 184.667C62.2729 184.706 62.3673 184.714 62.456 184.69C62.5447 184.666 62.622 184.611 62.6742 184.536C62.7265 184.46 62.7502 184.368 62.7413 184.277Z" fill="white"/>
<path d="M73.3686 181.592C73.3616 182.445 73.2219 183.291 72.9545 184.101C72.8165 184.528 73.469 184.703 73.607 184.289C73.9041 183.436 74.0732 182.544 74.1089 181.642C74.134 181.115 73.3811 181.102 73.3686 181.592Z" fill="white"/>
<path d="M53.3437 156.448C52.7228 155.41 52.0485 154.405 51.3236 153.436C51.1354 153.236 50.8217 153.436 50.9472 153.725C51.5244 154.754 52.0262 155.858 52.6912 156.824C52.9673 157.238 53.6448 156.837 53.3437 156.448Z" fill="white"/>
<path d="M59.0525 143.713C58.5199 142.497 58.2056 141.198 58.124 139.873C58.1063 139.768 58.0518 139.672 57.9703 139.603C57.8888 139.534 57.7854 139.497 57.6786 139.497C57.5718 139.497 57.4685 139.534 57.387 139.603C57.3054 139.672 57.251 139.768 57.2332 139.873C57.2968 141.277 57.6112 142.658 58.1617 143.951C58.375 144.503 59.2784 144.29 59.0525 143.713Z" fill="white"/>
<path d="M69.6547 145.017C69.094 146.288 68.4134 147.502 67.6221 148.643C67.2833 149.083 67.8856 149.697 68.2243 149.258C69.0682 148.079 69.7912 146.818 70.3824 145.494C70.6208 144.955 69.8931 144.528 69.6547 145.017Z" fill="white"/>
<path d="M62.7413 157.928C62.5507 157.204 62.4661 156.456 62.4904 155.708C62.4904 155.614 62.4533 155.525 62.3875 155.459C62.3216 155.393 62.2322 155.356 62.139 155.356C62.0459 155.356 61.9565 155.393 61.8906 155.459C61.8247 155.525 61.7877 155.614 61.7877 155.708C61.7391 156.521 61.811 157.337 62.001 158.129C62.0395 158.213 62.1064 158.28 62.1896 158.319C62.2729 158.357 62.3673 158.366 62.456 158.341C62.5447 158.317 62.622 158.263 62.6742 158.187C62.7265 158.111 62.7502 158.02 62.7413 157.928Z" fill="white"/>
<path d="M73.3686 155.243C73.3616 156.096 73.2219 156.943 72.9545 157.752C72.8165 158.179 73.469 158.355 73.607 157.941C73.9041 157.088 74.0732 156.196 74.1089 155.293C74.134 154.766 73.3811 154.754 73.3686 155.243Z" fill="white"/>
<path d="M53.3437 130.099C52.7228 129.061 52.0485 128.056 51.3236 127.088C51.1354 126.887 50.8217 127.088 50.9472 127.376C51.5244 128.405 52.0262 129.509 52.6912 130.476C52.9673 130.89 53.6448 130.488 53.3437 130.099Z" fill="white"/>
<path d="M59.0525 117.364C58.5199 116.149 58.2056 114.849 58.124 113.525C58.1063 113.419 58.0518 113.324 57.9703 113.255C57.8888 113.186 57.7854 113.148 57.6786 113.148C57.5718 113.148 57.4685 113.186 57.387 113.255C57.3054 113.324 57.251 113.419 57.2332 113.525C57.2968 114.929 57.6112 116.31 58.1617 117.602C58.375 118.155 59.2784 117.941 59.0525 117.364Z" fill="white"/>
<path d="M69.6547 118.669C69.094 119.94 68.4134 121.154 67.6221 122.295C67.2833 122.734 67.8856 123.349 68.2243 122.91C69.0682 121.731 69.7912 120.47 70.3824 119.146C70.6208 118.606 69.8931 118.18 69.6547 118.669Z" fill="white"/>
<path d="M62.7413 131.58C62.5507 130.855 62.4661 130.107 62.4904 129.359C62.4904 129.266 62.4533 129.176 62.3875 129.11C62.3216 129.045 62.2322 129.008 62.139 129.008C62.0459 129.008 61.9565 129.045 61.8906 129.11C61.8247 129.176 61.7877 129.266 61.7877 129.359C61.7391 130.172 61.811 130.988 62.001 131.78C62.0395 131.864 62.1064 131.931 62.1896 131.97C62.2729 132.009 62.3673 132.017 62.456 131.993C62.5447 131.969 62.622 131.914 62.6742 131.838C62.7265 131.763 62.7502 131.671 62.7413 131.58Z" fill="white"/>
<path d="M73.3686 128.895C73.3616 129.748 73.2219 130.594 72.9545 131.404C72.8165 131.831 73.469 132.006 73.607 131.592C73.9041 130.739 74.0732 129.847 74.1089 128.945C74.134 128.418 73.3811 128.405 73.3686 128.895Z" fill="white"/>
<path d="M53.3437 103.751C52.7228 102.713 52.0485 101.707 51.3236 100.739C51.1354 100.539 50.8217 100.739 50.9472 101.028C51.5244 102.057 52.0262 103.161 52.6912 104.127C52.9673 104.541 53.6448 104.14 53.3437 103.751Z" fill="white"/>
<path d="M59.0525 91.0156C58.5199 89.8003 58.2056 88.5006 58.124 87.1762C58.1063 87.0709 58.0518 86.9753 57.9703 86.9064C57.8888 86.8374 57.7854 86.7996 57.6786 86.7996C57.5718 86.7996 57.4685 86.8374 57.387 86.9064C57.3054 86.9753 57.251 87.0709 57.2332 87.1762C57.2968 88.58 57.6112 89.9611 58.1617 91.254C58.375 91.806 59.2784 91.5927 59.0525 91.0156Z" fill="white"/>
<path d="M69.6547 92.3203C69.094 93.5909 68.4134 94.8051 67.6221 95.9463C67.2833 96.3855 67.8856 97.0003 68.2243 96.5611C69.0682 95.3821 69.7912 94.121 70.3824 92.7971C70.6208 92.2575 69.8931 91.831 69.6547 92.3203Z" fill="white"/>
<path d="M62.7414 105.231C62.5507 104.507 62.4662 103.759 62.4904 103.01C62.4904 102.917 62.4534 102.828 62.3875 102.762C62.3216 102.696 62.2323 102.659 62.1391 102.659C62.0459 102.659 61.9566 102.696 61.8907 102.762C61.8248 102.828 61.7878 102.917 61.7878 103.01C61.7306 103.809 61.7897 104.612 61.9634 105.394C61.9851 105.497 62.0468 105.588 62.135 105.645C62.2233 105.703 62.3308 105.723 62.434 105.702C62.5371 105.68 62.6275 105.618 62.6851 105.53C62.7428 105.442 62.763 105.334 62.7414 105.231Z" fill="white"/>
<path d="M73.3686 102.546C73.3616 103.399 73.2219 104.246 72.9545 105.055C72.8165 105.482 73.469 105.658 73.607 105.244C73.9041 104.391 74.0732 103.499 74.1089 102.596C74.134 102.069 73.3811 102.057 73.3686 102.546Z" fill="white"/>
<path d="M53.3437 77.4021C52.7228 76.3641 52.0485 75.359 51.3236 74.3908C51.1354 74.1901 50.8217 74.4536 50.9472 74.6794C51.5244 75.7082 52.0262 76.8124 52.6912 77.7785C52.9673 78.1925 53.6448 77.791 53.3437 77.4021Z" fill="white"/>
<path d="M59.0525 64.667C58.5199 63.4517 58.2056 62.152 58.124 60.8276C58.1063 60.7223 58.0518 60.6267 57.9703 60.5577C57.8888 60.4888 57.7854 60.4509 57.6786 60.4509C57.5718 60.4509 57.4685 60.4888 57.387 60.5577C57.3054 60.6267 57.251 60.7223 57.2332 60.8276C57.2968 62.2314 57.6112 63.6124 58.1617 64.9054C58.375 65.4574 59.2784 65.2441 59.0525 64.667Z" fill="white"/>
<path d="M69.6547 65.9718C69.094 67.2424 68.4134 68.4566 67.6221 69.5978C67.2833 70.037 67.8856 70.6518 68.2243 70.2126C69.0682 69.0336 69.7912 67.7725 70.3824 66.4486C70.6208 65.909 69.8931 65.4824 69.6547 65.9718Z" fill="white"/>
<path d="M62.7414 78.8825C62.5507 78.1583 62.4662 77.4102 62.4904 76.6617C62.4904 76.5686 62.4534 76.4792 62.3875 76.4133C62.3216 76.3474 62.2323 76.3104 62.1391 76.3104C62.0459 76.3104 61.9566 76.3474 61.8907 76.4133C61.8248 76.4792 61.7878 76.5686 61.7878 76.6617C61.7306 77.4607 61.7897 78.2637 61.9634 79.0457C61.9851 79.1488 62.0468 79.2392 62.135 79.2968C62.2233 79.3544 62.3308 79.3747 62.434 79.3531C62.5371 79.3314 62.6275 79.2697 62.6851 79.1815C62.7428 79.0932 62.763 78.9857 62.7414 78.8825Z" fill="white"/>
<path d="M73.3686 76.1976C73.3616 77.0504 73.2219 77.897 72.9545 78.707C72.8165 79.1336 73.469 79.3092 73.607 78.8952C73.9041 78.0423 74.0732 77.1502 74.1089 76.2478C74.134 75.7208 73.3811 75.7082 73.3686 76.1976Z" fill="white"/>
<path d="M53.3437 51.0536C52.7228 50.0156 52.0485 49.0105 51.3236 48.0423C51.1354 47.8416 50.8217 48.105 50.9472 48.3309C51.5244 49.3597 52.0262 50.4639 52.6912 51.43C52.9673 51.844 53.6448 51.4425 53.3437 51.0536Z" fill="white"/>
<path d="M59.0525 38.3184C58.5199 37.1032 58.2056 35.8035 58.124 34.4791C58.1063 34.3738 58.0518 34.2782 57.9703 34.2092C57.8888 34.1403 57.7854 34.1024 57.6786 34.1024C57.5718 34.1024 57.4685 34.1403 57.387 34.2092C57.3054 34.2782 57.251 34.3738 57.2332 34.4791C57.2968 35.8829 57.6112 37.2639 58.1617 38.5568C58.375 39.1089 59.2784 38.8956 59.0525 38.3184Z" fill="white"/>
<path d="M69.6547 39.6231C69.094 40.8937 68.4134 42.1079 67.6221 43.2492C67.2833 43.6884 67.8856 44.3031 68.2243 43.864C69.0682 42.6849 69.7912 41.4239 70.3824 40.0999C70.6208 39.5604 69.8931 39.1338 69.6547 39.6231Z" fill="white"/>
<path d="M62.7414 52.534C62.5507 51.8098 62.4662 51.0617 62.4904 50.3132C62.4904 50.2201 62.4534 50.1307 62.3875 50.0648C62.3216 49.9989 62.2323 49.9619 62.1391 49.9619C62.0459 49.9619 61.9566 49.9989 61.8907 50.0648C61.8248 50.1307 61.7878 50.2201 61.7878 50.3132C61.7306 51.1122 61.7897 51.9152 61.9634 52.6971C61.9851 52.8003 62.0468 52.8906 62.135 52.9483C62.2233 53.0059 62.3308 53.0262 62.434 53.0045C62.5371 52.9829 62.6275 52.9212 62.6851 52.833C62.7428 52.7447 62.763 52.6372 62.7414 52.534Z" fill="white"/>
<path d="M73.3686 49.8489C73.3616 50.7018 73.2219 51.5484 72.9545 52.3583C72.8165 52.7849 73.469 52.9606 73.607 52.5465C73.9041 51.6937 74.0732 50.8015 74.1089 49.8991C74.134 49.3722 73.3811 49.3596 73.3686 49.8489Z" fill="white"/>
<path d="M53.3437 24.7051C52.7228 23.6671 52.0485 22.662 51.3236 21.6938C51.1354 21.493 50.8217 21.7565 50.9472 21.9824C51.5244 23.0112 52.0262 24.1154 52.6912 25.0815C52.9673 25.4955 53.6448 25.094 53.3437 24.7051Z" fill="white"/>
<path d="M59.0525 11.9698C58.5199 10.7545 58.2056 9.45485 58.124 8.13045C58.1063 8.02515 58.0518 7.92953 57.9703 7.86058C57.8888 7.79162 57.7854 7.75378 57.6786 7.75378C57.5718 7.75378 57.4685 7.79162 57.387 7.86058C57.3054 7.92953 57.251 8.02515 57.2332 8.13045C57.2968 9.53423 57.6112 10.9153 58.1617 12.2082C58.375 12.7603 59.2784 12.547 59.0525 11.9698Z" fill="white"/>
<path d="M69.6547 13.2746C69.094 14.5452 68.4134 15.7594 67.6221 16.9007C67.2833 17.3398 67.8856 17.9546 68.2243 17.5155C69.0682 16.3364 69.7912 15.0754 70.3824 13.7514C70.6208 13.2119 69.8931 12.7853 69.6547 13.2746Z" fill="white"/>
<path d="M62.7414 26.1854C62.5507 25.4612 62.4662 24.7131 62.4904 23.9646C62.4904 23.8714 62.4534 23.7821 62.3875 23.7162C62.3216 23.6503 62.2323 23.6133 62.1391 23.6133C62.0459 23.6133 61.9566 23.6503 61.8907 23.7162C61.8248 23.7821 61.7878 23.8714 61.7878 23.9646C61.7306 24.7635 61.7897 25.5666 61.9634 26.3485C61.9851 26.4517 62.0468 26.542 62.135 26.5997C62.2233 26.6573 62.3308 26.6775 62.434 26.6559C62.5371 26.6343 62.6275 26.5726 62.6851 26.4843C62.7428 26.3961 62.763 26.2886 62.7414 26.1854Z" fill="white"/>
<path d="M73.3686 23.5004C73.3616 24.3533 73.2219 25.1999 72.9545 26.0098C72.8165 26.4364 73.469 26.6121 73.607 26.198C73.9041 25.3452 74.0732 24.453 74.1089 23.5506C74.134 23.0236 73.3811 23.0111 73.3686 23.5004Z" fill="white"/>
<path d="M49.5796 36.612C49.1431 35.7374 48.5715 34.9372 47.8857 34.2406C47.8292 34.1824 47.7518 34.149 47.6706 34.1479C47.5894 34.1467 47.5111 34.1778 47.4529 34.2344C47.3946 34.2909 47.3613 34.3683 47.3601 34.4495C47.3589 34.5307 47.39 34.609 47.4466 34.6672C48.0812 35.3452 48.61 36.1151 49.015 36.9508C49.2032 37.3272 49.7678 36.9884 49.5796 36.612Z" fill="white"/>
<path d="M46.3299 12.798C46.3159 12.7302 46.2789 12.6693 46.2252 12.6256C46.1715 12.5819 46.1043 12.558 46.0351 12.558C45.9658 12.558 45.8987 12.5819 45.845 12.6256C45.7913 12.6693 45.7543 12.7302 45.7402 12.798C45.7402 14.2032 45.9284 15.5959 45.9284 16.9886C45.9284 17.0785 45.9641 17.1647 46.0277 17.2282C46.0912 17.2917 46.1774 17.3274 46.2672 17.3274C46.357 17.3274 46.4432 17.2917 46.5068 17.2282C46.5703 17.1647 46.606 17.0785 46.606 16.9886C46.5809 15.5959 46.4303 14.2032 46.3299 12.798Z" fill="white"/>
<path d="M48.6135 62.145C47.9794 61.4651 47.5263 60.6368 47.296 59.736C47.2837 59.6932 47.263 59.6532 47.2352 59.6183C47.2074 59.5835 47.173 59.5545 47.134 59.5329C47.0949 59.5114 47.052 59.4977 47.0077 59.4927C46.9634 59.4877 46.9186 59.4915 46.8757 59.5039C46.8329 59.5163 46.7929 59.5369 46.7581 59.5647C46.7232 59.5926 46.6942 59.627 46.6726 59.666C46.6511 59.705 46.6374 59.7479 46.6324 59.7922C46.6275 59.8365 46.6313 59.8814 46.6436 59.9242C46.8921 60.9413 47.4025 61.8757 48.1241 62.6344C48.4253 62.9606 48.9397 62.4712 48.6135 62.145Z" fill="white"/>
<path d="M47.685 88.2928C47.2383 87.5729 46.9995 86.7435 46.9949 85.8963C46.9949 85.8131 46.9619 85.7333 46.903 85.6745C46.8442 85.6157 46.7644 85.5826 46.6812 85.5826C46.5981 85.5826 46.5183 85.6157 46.4594 85.6745C46.4006 85.7333 46.3676 85.8131 46.3676 85.8963C46.3543 86.856 46.6014 87.8012 47.0827 88.6315C47.3713 89.0832 47.9736 88.6692 47.685 88.2928Z" fill="white"/>
<path d="M49.5545 113.111C48.8083 112.353 48.2085 111.464 47.7854 110.488C47.6097 110.049 46.8945 110.238 47.0827 110.677C47.5359 111.782 48.2008 112.788 49.0401 113.638C49.3663 113.977 49.8933 113.45 49.5545 113.111Z" fill="white"/>
<path d="M79.5165 59.5227C79.2656 60.4637 78.839 61.3671 78.5881 62.3206C78.5828 62.3886 78.6018 62.4563 78.6417 62.5116C78.6815 62.5669 78.7397 62.6063 78.8058 62.6229C78.872 62.6394 78.9418 62.632 79.003 62.6019C79.0642 62.5719 79.1128 62.5211 79.1401 62.4587C79.3911 61.5176 79.8177 60.6268 80.0812 59.6732C80.1011 59.5984 80.0905 59.5186 80.0517 59.4516C80.0129 59.3845 79.949 59.3356 79.8741 59.3157C79.7993 59.2957 79.7195 59.3063 79.6525 59.3451C79.5854 59.3839 79.5365 59.4478 79.5165 59.5227Z" fill="white"/>
<path d="M82.9168 38.4064C82.9288 38.3063 82.9288 38.2052 82.9168 38.1052C82.8883 38.0255 82.832 37.9588 82.7582 37.9173C82.6844 37.8758 82.5982 37.8623 82.5153 37.8794C82.1138 37.9672 82.0887 38.7953 82.0761 39.1341C82.0636 39.4728 82.6909 39.5481 82.716 39.1341C82.709 39.0171 82.709 38.8998 82.716 38.7828C82.716 38.7828 82.716 38.72 82.716 38.6949C82.7778 38.6777 82.8316 38.6394 82.8683 38.5867C82.9049 38.5341 82.922 38.4703 82.9168 38.4064Z" fill="white"/>
<path d="M79.0523 115.068C78.5459 115.737 78.1244 116.466 77.7976 117.239C77.6345 117.665 78.312 117.841 78.4626 117.427C78.7568 116.711 79.1359 116.032 79.5918 115.407C79.8679 115.043 79.2782 114.692 79.0523 115.068Z" fill="white"/>
<path d="M78.0611 86.5738C77.8022 87.4353 77.6422 88.3235 77.5844 89.2212C77.5844 89.3144 77.6214 89.4037 77.6872 89.4696C77.7531 89.5355 77.8425 89.5725 77.9357 89.5725C78.0288 89.5725 78.1182 89.5355 78.1841 89.4696C78.25 89.4037 78.287 89.3144 78.287 89.2212C78.3366 88.3707 78.484 87.5287 78.7261 86.7118C78.7444 86.6236 78.7269 86.5318 78.6775 86.4565C78.6281 86.3812 78.5508 86.3286 78.4626 86.3103C78.3744 86.292 78.2826 86.3095 78.2073 86.3589C78.132 86.4083 78.0794 86.4856 78.0611 86.5738Z" fill="white"/>
<path d="M53.0928 169.296C52.7038 168.681 52.34 168.041 51.9385 167.439C51.6875 167.037 51.0476 167.439 51.3111 167.803C51.7126 168.418 52.0639 169.057 52.478 169.66C52.7038 170.036 53.3437 169.697 53.0928 169.296Z" fill="white"/>
<path d="M31.7755 141.241C30.9862 140.83 30.3065 140.236 29.7931 139.509C29.5547 139.158 28.9776 139.509 29.2159 139.848C29.7631 140.678 30.5037 141.363 31.374 141.843C31.8257 142.056 32.177 141.454 31.7755 141.241Z" fill="white"/>
<path d="M22.039 141.09C21.2476 140.161 20.5889 139.127 20.0817 138.016C19.9437 137.665 19.354 137.816 19.5046 138.179C20.0577 139.413 20.789 140.559 21.6752 141.58C21.8508 141.843 22.29 141.404 22.039 141.09Z" fill="white"/>
<path d="M20.0818 120.451C19.9312 120.074 19.3039 120.237 19.4544 120.626C19.8439 121.689 20.1542 122.78 20.3829 123.888C20.4833 124.302 21.0855 124.114 21.0102 123.713C20.8202 122.595 20.5088 121.501 20.0818 120.451Z" fill="white"/>
<path d="M9.54237 125.243C9.54237 125.167 9.51197 125.093 9.45785 125.039C9.40373 124.985 9.33033 124.955 9.25379 124.955C9.17725 124.955 9.10385 124.985 9.04973 125.039C8.99561 125.093 8.96521 125.167 8.96521 125.243C9.00636 126.216 9.16219 127.181 9.42945 128.117C9.44775 128.198 9.49769 128.269 9.56828 128.314C9.63887 128.359 9.72433 128.373 9.80585 128.355C9.88738 128.337 9.9583 128.287 10.003 128.216C10.0477 128.146 10.0625 128.06 10.0442 127.979C9.77672 127.088 9.60841 126.171 9.54237 125.243Z" fill="white"/>
<path d="M19.0905 103.512C19.0152 103.123 18.4381 103.299 18.5008 103.675C18.7392 104.93 18.965 106.185 19.1658 107.439C19.2411 107.866 19.906 107.69 19.8308 107.251C19.6049 105.984 19.354 104.754 19.0905 103.512Z" fill="white"/>
<path d="M11.6502 108.945C11.6502 108.865 11.6185 108.789 11.562 108.732C11.5055 108.676 11.4289 108.644 11.3491 108.644C11.2692 108.644 11.1926 108.676 11.1361 108.732C11.0797 108.789 11.0479 108.865 11.0479 108.945C11.0301 109.913 11.1142 110.88 11.2989 111.831C11.3992 112.22 12.0015 112.057 11.9137 111.655C11.7191 110.765 11.6307 109.856 11.6502 108.945Z" fill="white"/>
<path d="M5.51479 105.281C5.51479 104.993 5.12584 104.867 5.07565 105.168C4.8493 106.598 4.8493 108.055 5.07565 109.484C5.07565 109.798 5.61517 109.673 5.56498 109.346C5.3412 108.002 5.32428 106.631 5.51479 105.281Z" fill="white"/>
<path d="M11.4746 102.333C11.203 101.617 11.0422 100.864 10.9978 100.099C10.9978 99.6602 10.2952 99.6602 10.3077 100.099C10.3451 100.928 10.4971 101.747 10.7594 102.533C10.91 102.973 11.6252 102.784 11.4746 102.333Z" fill="white"/>
<path d="M33.8834 149.421C33.3917 149.206 32.9349 148.919 32.5283 148.568C32.2648 148.317 31.8759 148.706 32.1268 148.957C32.5583 149.358 33.044 149.696 33.5697 149.961C33.8834 150.149 34.2096 149.597 33.8834 149.421Z" fill="white"/>
<path d="M41.7754 144.516C41.0511 143.968 40.2414 143.544 39.379 143.261C39.3369 143.249 39.2931 143.246 39.2498 143.252C39.2066 143.257 39.1649 143.271 39.127 143.292C39.0505 143.336 38.9945 143.408 38.9712 143.493C38.9479 143.578 38.9593 143.668 39.0028 143.745C39.0463 143.821 39.1184 143.877 39.2033 143.901C40.006 144.153 40.7639 144.53 41.4492 145.017C41.8005 145.319 42.1267 144.754 41.7754 144.516Z" fill="white"/>
<path d="M19.354 150.086C18.898 149.962 18.4723 149.745 18.1034 149.449C17.7344 149.153 17.4298 148.785 17.2085 148.368C17.0203 148.016 16.4808 148.368 16.669 148.681C16.9281 149.171 17.2843 149.602 17.7157 149.95C18.1471 150.297 18.6448 150.553 19.1783 150.701C19.2599 150.725 19.3473 150.715 19.4214 150.673C19.4956 150.632 19.5503 150.563 19.5736 150.482C19.5969 150.4 19.5868 150.313 19.5456 150.239C19.5045 150.165 19.4355 150.11 19.354 150.086Z" fill="white"/>
<path d="M13.9337 137.439L13.2311 136.034C13.068 135.695 12.5536 136.034 12.7292 136.335L13.4193 137.74C13.595 138.079 14.1094 137.778 13.9337 137.439Z" fill="white"/>
<path d="M91.8377 96.8247C91.1225 97.0254 90.4324 97.2889 89.7298 97.5148C89.4035 97.6277 89.5416 98.1421 89.8803 98.0418C90.5704 97.8034 91.2856 97.5901 91.9757 97.3266C92.2768 97.2011 92.1639 96.7369 91.8377 96.8247Z" fill="white"/>
<path d="M99.7799 91.1784C99.6898 91.4964 99.5306 91.7907 99.3137 92.0401C99.0969 92.2895 98.8276 92.488 98.5252 92.6213C98.2115 92.7468 98.3495 93.2863 98.6757 93.1483C99.0795 92.9944 99.443 92.7506 99.7387 92.4354C100.034 92.1202 100.254 91.7418 100.382 91.329C100.445 90.9902 99.9053 90.8522 99.7799 91.1784Z" fill="white"/>
<path d="M104.297 77.3645C104.385 77.0006 103.807 76.8375 103.72 77.2139C103.506 78.1047 103.506 79.0333 103.72 79.9241C103.807 80.2754 104.347 80.1248 104.272 79.7735C104.084 78.9804 104.093 78.1535 104.297 77.3645Z" fill="white"/>
<path d="M106.066 65.244C105.869 66.307 105.789 67.3882 105.827 68.4686H106.38C106.348 67.4864 106.441 66.5041 106.656 65.5451C106.656 65.244 106.154 64.8801 106.066 65.244Z" fill="white"/>
<path d="M111.135 72.308C110.909 73.1612 110.646 74.0144 110.42 74.8174C110.407 74.8619 110.404 74.9084 110.409 74.9542C110.415 75 110.43 75.0443 110.452 75.0845C110.475 75.1247 110.505 75.16 110.542 75.1885C110.578 75.2169 110.62 75.2379 110.664 75.2503C110.709 75.2626 110.755 75.2661 110.801 75.2605C110.847 75.2549 110.891 75.2403 110.931 75.2176C110.972 75.1949 111.007 75.1644 111.035 75.1281C111.064 75.0917 111.085 75.0501 111.097 75.0056C111.311 74.1399 111.561 73.2992 111.775 72.4962C111.8 72.4113 111.79 72.3201 111.748 72.2424C111.705 72.1648 111.634 72.1071 111.549 72.0822C111.464 72.0572 111.373 72.067 111.295 72.1093C111.217 72.1517 111.16 72.2231 111.135 72.308Z" fill="white"/>
<path d="M116.869 59.2843C116.842 59.2142 116.79 59.1566 116.723 59.123C116.655 59.0893 116.578 59.082 116.506 59.1024C116.433 59.1228 116.371 59.1696 116.332 59.2334C116.292 59.2972 116.278 59.3736 116.292 59.4474C116.463 60.1021 116.535 60.7789 116.505 61.4549C116.519 61.5258 116.558 61.5896 116.614 61.6354C116.67 61.6812 116.74 61.7062 116.812 61.7062C116.885 61.7062 116.955 61.6812 117.011 61.6354C117.067 61.5896 117.105 61.5258 117.12 61.4549C117.143 60.723 117.059 59.9916 116.869 59.2843Z" fill="white"/>
<path d="M109.316 52.9982C109.022 53.7708 108.844 54.5826 108.789 55.4073C108.789 55.8464 109.466 55.8464 109.466 55.4073C109.498 54.6388 109.637 53.8786 109.88 53.1488C109.981 52.7975 109.441 52.6971 109.316 52.9982Z" fill="white"/>
<path d="M101.825 61.1663C101.629 62.7476 101.545 64.3409 101.574 65.9341H102.252C102.221 64.4462 102.292 62.958 102.465 61.4799C102.528 61.0408 101.888 60.7397 101.825 61.1663Z" fill="white"/>
<path d="M110.482 91.5925C110.103 92.3518 109.574 93.0262 108.927 93.5749C108.676 93.8259 109.077 94.2148 109.328 93.9639C110.044 93.3493 110.625 92.5932 111.034 91.7431C111.172 91.4545 110.608 91.3039 110.482 91.5925Z" fill="white"/>
<path d="M115.438 81.6932C115.042 82.1316 114.712 82.6263 114.46 83.1612C114.246 83.5627 114.849 83.914 115.049 83.5125C115.285 83.0569 115.58 82.6349 115.928 82.2578C116.204 81.8688 115.714 81.3669 115.438 81.6932Z" fill="white"/>
<path d="M120.181 70.2629C120.007 71.0814 119.566 71.8187 118.927 72.3583C118.538 72.6469 118.927 73.2868 119.303 73.0107C120.098 72.3788 120.652 71.4929 120.871 70.5013C120.887 70.456 120.894 70.4081 120.891 70.3602C120.888 70.3124 120.875 70.2656 120.854 70.2224C120.834 70.1793 120.804 70.1408 120.768 70.109C120.733 70.0772 120.691 70.0528 120.645 70.0371C120.6 70.0214 120.552 70.0149 120.504 70.0177C120.456 70.0206 120.41 70.0329 120.367 70.0539C120.323 70.0748 120.285 70.1041 120.253 70.14C120.221 70.1758 120.197 70.2176 120.181 70.2629Z" fill="white"/>
<path d="M103.306 103.123C102.45 103.739 101.543 104.281 100.595 104.742C100.269 104.918 100.595 105.407 100.897 105.244C101.872 104.789 102.812 104.26 103.707 103.663C103.749 103.639 103.785 103.607 103.813 103.568C103.841 103.529 103.861 103.485 103.871 103.438C103.881 103.391 103.88 103.343 103.87 103.296C103.86 103.249 103.84 103.205 103.811 103.166C103.782 103.128 103.746 103.096 103.704 103.073C103.662 103.049 103.616 103.035 103.568 103.031C103.52 103.027 103.472 103.033 103.427 103.049C103.382 103.065 103.34 103.09 103.306 103.123Z" fill="white"/>
<path d="M93.8201 105.394H91.3107V105.934H93.8201C95.0747 105.959 95.0747 105.394 93.8201 105.394Z" fill="white"/>
<path d="M27.7856 189.848C27.7856 189.848 15.6401 190.764 14.9626 193.511C14.4356 195.682 15.5649 199.421 27.0955 197.815C38.6261 196.209 50.1818 196.385 55.439 197.903C60.6962 199.421 111.587 200.086 109.29 194.967C106.994 189.848 98.2742 187.639 90.2818 188.882C82.2894 190.124 27.7856 189.848 27.7856 189.848Z" fill="#E9DBB2"/>
</svg>
