<svg width="154" height="231" viewBox="0 0 154 231" fill="none" xmlns="http://www.w3.org/2000/svg">
<path d="M141.245 205.07H8.79871V15.0374H141.245C145.996 15.0374 149.883 18.7804 149.883 23.5312V196.288C149.883 201.087 145.996 205.07 141.245 205.07Z" fill="#0A7362" stroke="#0A7362" stroke-width="8" stroke-miterlimit="10" stroke-linecap="round" stroke-linejoin="round"/>
<path d="M122.53 208.908H115.812C114.468 208.908 113.412 207.853 113.412 206.509V13.5975C113.412 12.2539 114.468 11.1981 115.812 11.1981H122.53C123.874 11.1981 124.93 12.2539 124.93 13.5975V206.509C124.93 207.853 123.874 208.908 122.53 208.908Z" fill="#0A7362" stroke="#0A7362" stroke-width="8" stroke-miterlimit="10" stroke-linecap="round" stroke-linejoin="round"/>
<path d="M38.0714 227L23.675 218.986V205.069H38.0714V227Z" fill="#0A7362" stroke="#0A7362" stroke-width="8" stroke-miterlimit="10" stroke-linecap="round" stroke-linejoin="round"/>
<path d="M136.447 197.871H4V7.83899H136.447C141.198 7.83899 145.085 11.5821 145.085 16.3329V189.089C145.085 193.888 141.198 197.871 136.447 197.871Z" fill="#4C5B60"/>
<mask id="mask0_949_2039" style="mask-type:alpha" maskUnits="userSpaceOnUse" x="4" y="8" width="142" height="191">
<path d="M136.447 198.831H4V8.79871H136.447C141.198 8.79871 145.085 12.5418 145.085 17.2926V190.049C145.085 194.848 141.198 198.831 136.447 198.831Z" fill="white"/>
</mask>
<g mask="url(#mask0_949_2039)">
<path opacity="0.11" d="M-8.28511 344.043C-8.47707 344.043 -8.66902 343.995 -8.81298 343.851C-9.10091 343.563 -9.10091 343.131 -8.81298 342.843L156.458 177.621C156.745 177.333 157.177 177.333 157.465 177.621C157.753 177.909 157.753 178.341 157.465 178.628L-7.75724 343.851C-7.90121 343.995 -8.09316 344.043 -8.28511 344.043Z" fill="#102D3B"/>
<path opacity="0.11" d="M-8.28511 337.325C-8.47707 337.325 -8.66902 337.277 -8.81298 337.133C-9.10091 336.845 -9.10091 336.413 -8.81298 336.125L156.458 170.902C156.745 170.614 157.177 170.614 157.465 170.902C157.753 171.19 157.753 171.622 157.465 171.91L-7.75724 337.133C-7.90121 337.277 -8.09316 337.325 -8.28511 337.325Z" fill="#102D3B"/>
<path opacity="0.11" d="M-8.28511 330.606C-8.47707 330.606 -8.66902 330.558 -8.81298 330.414C-9.10091 330.126 -9.10091 329.695 -8.81298 329.407L156.458 164.184C156.745 163.896 157.177 163.896 157.465 164.184C157.753 164.472 157.753 164.904 157.465 165.192L-7.75724 330.414C-7.90121 330.558 -8.09316 330.606 -8.28511 330.606Z" fill="#102D3B"/>
<path opacity="0.11" d="M-8.28511 323.888C-8.47707 323.888 -8.66902 323.84 -8.81298 323.696C-9.10091 323.408 -9.10091 322.976 -8.81298 322.688L156.458 157.466C156.745 157.178 157.177 157.178 157.465 157.466C157.753 157.754 157.753 158.186 157.465 158.473L-7.75724 323.696C-7.90121 323.84 -8.09316 323.888 -8.28511 323.888Z" fill="#102D3B"/>
<path opacity="0.11" d="M-8.28511 317.17C-8.47707 317.17 -8.66902 317.122 -8.81298 316.978C-9.10091 316.69 -9.10091 316.258 -8.81298 315.97L156.458 150.747C156.745 150.459 157.177 150.459 157.465 150.747C157.753 151.035 157.753 151.467 157.465 151.755L-7.75724 316.978C-7.90121 317.122 -8.09316 317.17 -8.28511 317.17Z" fill="#102D3B"/>
<path opacity="0.11" d="M-8.28511 310.451C-8.47707 310.451 -8.66902 310.403 -8.81298 310.259C-9.10091 309.971 -9.10091 309.539 -8.81298 309.252L156.458 144.029C156.745 143.741 157.177 143.741 157.465 144.029C157.753 144.317 157.753 144.749 157.465 145.037L-7.75724 310.259C-7.90121 310.403 -8.09316 310.451 -8.28511 310.451Z" fill="#102D3B"/>
<path opacity="0.11" d="M-8.28511 303.733C-8.47707 303.733 -8.66902 303.685 -8.81298 303.541C-9.10091 303.253 -9.10091 302.821 -8.81298 302.533L156.458 137.311C156.745 137.023 157.177 137.023 157.465 137.311C157.753 137.599 157.753 138.031 157.465 138.319L-7.75724 303.541C-7.90121 303.685 -8.09316 303.733 -8.28511 303.733Z" fill="#102D3B"/>
<path opacity="0.11" d="M-8.28511 297.015C-8.47707 297.015 -8.66902 296.967 -8.81298 296.823C-9.10091 296.535 -9.10091 296.103 -8.81298 295.815L156.458 130.592C156.745 130.304 157.177 130.304 157.465 130.592C157.753 130.88 157.753 131.312 157.465 131.6L-7.75724 296.823C-7.90121 296.967 -8.09316 297.015 -8.28511 297.015Z" fill="#102D3B"/>
<path opacity="0.11" d="M-8.28511 290.296C-8.47707 290.296 -8.66902 290.248 -8.81298 290.104C-9.10091 289.816 -9.10091 289.384 -8.81298 289.097L156.458 123.874C156.745 123.586 157.177 123.586 157.465 123.874C157.753 124.162 157.753 124.594 157.465 124.882L-7.75724 290.104C-7.90121 290.248 -8.09316 290.296 -8.28511 290.296Z" fill="#102D3B"/>
<path opacity="0.11" d="M-8.28511 283.578C-8.47707 283.578 -8.66902 283.53 -8.81298 283.386C-9.10091 283.098 -9.10091 282.666 -8.81298 282.378L156.458 117.156C156.745 116.868 157.177 116.868 157.465 117.156C157.753 117.444 157.753 117.876 157.465 118.164L-7.75724 283.386C-7.90121 283.53 -8.09316 283.578 -8.28511 283.578Z" fill="#102D3B"/>
<path opacity="0.11" d="M-8.28511 276.86C-8.47707 276.86 -8.66902 276.812 -8.81298 276.668C-9.10091 276.38 -9.10091 275.948 -8.81298 275.66L156.458 110.438C156.745 110.15 157.177 110.15 157.465 110.438C157.753 110.726 157.753 111.157 157.465 111.445L-7.75724 276.668C-7.90121 276.812 -8.09316 276.86 -8.28511 276.86Z" fill="#102D3B"/>
<path opacity="0.11" d="M-8.28511 270.141C-8.47707 270.141 -8.66902 270.093 -8.81298 269.95C-9.10091 269.662 -9.10091 269.23 -8.81298 268.942L156.458 103.719C156.745 103.431 157.177 103.431 157.465 103.719C157.753 104.007 157.753 104.439 157.465 104.727L-7.75724 269.95C-7.90121 270.093 -8.09316 270.141 -8.28511 270.141Z" fill="#102D3B"/>
<path opacity="0.11" d="M-8.28511 263.423C-8.47707 263.423 -8.66902 263.375 -8.81298 263.231C-9.10091 262.943 -9.10091 262.511 -8.81298 262.223L156.458 97.0009C156.745 96.7129 157.177 96.7129 157.465 97.0009C157.753 97.2888 157.753 97.7207 157.465 98.0086L-7.75724 263.231C-7.90121 263.375 -8.09316 263.423 -8.28511 263.423Z" fill="#102D3B"/>
<path opacity="0.11" d="M-8.28511 256.705C-8.47707 256.705 -8.66902 256.657 -8.81298 256.513C-9.10091 256.225 -9.10091 255.793 -8.81298 255.505L156.458 90.2826C156.745 89.9947 157.177 89.9947 157.465 90.2826C157.753 90.5705 157.753 91.0024 157.465 91.2903L-7.75724 256.513C-7.90121 256.657 -8.09316 256.705 -8.28511 256.705Z" fill="#102D3B"/>
<path opacity="0.11" d="M-8.28511 249.987C-8.47707 249.987 -8.66902 249.939 -8.81298 249.795C-9.10091 249.507 -9.10091 249.075 -8.81298 248.787L156.458 83.5643C156.745 83.2764 157.177 83.2764 157.465 83.5643C157.753 83.8523 157.753 84.2842 157.465 84.5721L-7.75724 249.795C-7.90121 249.939 -8.09316 249.987 -8.28511 249.987Z" fill="#102D3B"/>
<path opacity="0.11" d="M-8.28511 243.268C-8.47707 243.268 -8.66902 243.22 -8.81298 243.076C-9.10091 242.788 -9.10091 242.356 -8.81298 242.068L156.458 76.8458C156.745 76.5579 157.177 76.5579 157.465 76.8458C157.753 77.1338 157.753 77.5657 157.465 77.8536L-7.75724 243.076C-7.90121 243.22 -8.09316 243.268 -8.28511 243.268Z" fill="#102D3B"/>
<path opacity="0.11" d="M-8.28511 236.55C-8.47707 236.55 -8.66902 236.502 -8.81298 236.358C-9.10091 236.07 -9.10091 235.638 -8.81298 235.35L156.458 70.1276C156.745 69.8396 157.177 69.8396 157.465 70.1276C157.753 70.4155 157.753 70.8474 157.465 71.1353L-7.75724 236.358C-7.90121 236.502 -8.09316 236.55 -8.28511 236.55Z" fill="#102D3B"/>
<path opacity="0.11" d="M-8.28511 229.832C-8.47707 229.832 -8.66902 229.784 -8.81298 229.64C-9.10091 229.352 -9.10091 228.92 -8.81298 228.632L156.458 63.4093C156.745 63.1214 157.177 63.1214 157.465 63.4093C157.753 63.6972 157.753 64.1291 157.465 64.4171L-7.75724 229.64C-7.90121 229.784 -8.09316 229.832 -8.28511 229.832Z" fill="#102D3B"/>
<path opacity="0.11" d="M-8.28511 223.113C-8.47707 223.113 -8.66902 223.065 -8.81298 222.921C-9.10091 222.633 -9.10091 222.201 -8.81298 221.914L156.458 56.691C156.745 56.4031 157.177 56.4031 157.465 56.691C157.753 56.979 157.753 57.4109 157.465 57.6988L-7.75724 222.921C-7.90121 223.065 -8.09316 223.113 -8.28511 223.113Z" fill="#102D3B"/>
<path opacity="0.11" d="M-8.28511 216.395C-8.47707 216.395 -8.66902 216.347 -8.81298 216.203C-9.10091 215.915 -9.10091 215.483 -8.81298 215.195L156.458 49.9728C156.745 49.6849 157.177 49.6849 157.465 49.9728C157.753 50.2607 157.753 50.6926 157.465 50.9805L-7.75724 216.203C-7.90121 216.347 -8.09316 216.395 -8.28511 216.395Z" fill="#102D3B"/>
<path opacity="0.11" d="M-8.28511 209.677C-8.47707 209.677 -8.66902 209.629 -8.81298 209.485C-9.10091 209.197 -9.10091 208.765 -8.81298 208.477L156.458 43.2544C156.745 42.9665 157.177 42.9665 157.465 43.2544C157.753 43.5423 157.753 43.9742 157.465 44.2621L-7.75724 209.485C-7.90121 209.629 -8.09316 209.677 -8.28511 209.677Z" fill="#102D3B"/>
<path opacity="0.11" d="M-8.28511 202.958C-8.47707 202.958 -8.66902 202.91 -8.81298 202.766C-9.10091 202.478 -9.10091 202.047 -8.81298 201.759L156.458 36.5361C156.745 36.2482 157.177 36.2482 157.465 36.5361C157.753 36.8241 157.753 37.256 157.465 37.5439L-7.75724 202.766C-7.90121 202.91 -8.09316 202.958 -8.28511 202.958Z" fill="#102D3B"/>
<path opacity="0.11" d="M-8.28511 196.24C-8.47707 196.24 -8.66902 196.192 -8.81298 196.048C-9.10091 195.76 -9.10091 195.328 -8.81298 195.04L156.458 29.8178C156.745 29.5298 157.177 29.5298 157.465 29.8178C157.753 30.1057 157.753 30.5376 157.465 30.8255L-7.75724 196.048C-7.90121 196.192 -8.09316 196.24 -8.28511 196.24Z" fill="#102D3B"/>
<path opacity="0.11" d="M-8.28511 189.522C-8.47707 189.522 -8.66902 189.474 -8.81298 189.33C-9.10091 189.042 -9.10091 188.61 -8.81298 188.322L156.458 23.0994C156.745 22.8114 157.177 22.8114 157.465 23.0994C157.753 23.3873 157.753 23.8192 157.465 24.1071L-7.75724 189.33C-7.90121 189.474 -8.09316 189.522 -8.28511 189.522Z" fill="#102D3B"/>
<path opacity="0.11" d="M-8.28511 182.803C-8.47707 182.803 -8.66902 182.755 -8.81298 182.611C-9.10091 182.323 -9.10091 181.892 -8.81298 181.604L156.458 16.3811C156.745 16.0932 157.177 16.0932 157.465 16.3811C157.753 16.669 157.753 17.1009 157.465 17.3889L-7.75724 182.611C-7.90121 182.755 -8.09316 182.803 -8.28511 182.803Z" fill="#102D3B"/>
<path opacity="0.11" d="M-8.28511 176.085C-8.47707 176.085 -8.66902 176.037 -8.81298 175.893C-9.10091 175.605 -9.10091 175.173 -8.81298 174.885L156.458 9.66285C156.745 9.37492 157.177 9.37492 157.465 9.66285C157.753 9.95077 157.753 10.3827 157.465 10.6706L-7.75724 175.893C-7.90121 176.037 -8.09316 176.085 -8.28511 176.085Z" fill="#102D3B"/>
<path opacity="0.11" d="M-8.28511 169.367C-8.47707 169.367 -8.66902 169.319 -8.81298 169.175C-9.10091 168.887 -9.10091 168.455 -8.81298 168.167L156.458 2.94446C156.745 2.65653 157.177 2.65653 157.465 2.94446C157.753 3.23239 157.753 3.66428 157.465 3.95221L-7.75724 169.175C-7.90121 169.319 -8.09316 169.367 -8.28511 169.367Z" fill="#102D3B"/>
<path opacity="0.11" d="M-8.28511 162.648C-8.47707 162.648 -8.66902 162.6 -8.81298 162.456C-9.10091 162.168 -9.10091 161.737 -8.81298 161.449L156.458 -3.77392C156.745 -4.06185 157.177 -4.06185 157.465 -3.77392C157.753 -3.48599 157.753 -3.0541 157.465 -2.76617L-7.75724 162.456C-7.90121 162.6 -8.09316 162.648 -8.28511 162.648Z" fill="#102D3B"/>
<path opacity="0.11" d="M-8.28511 155.93C-8.47707 155.93 -8.66902 155.882 -8.81298 155.738C-9.10091 155.45 -9.10091 155.018 -8.81298 154.73L156.458 -10.4922C156.745 -10.7801 157.177 -10.7801 157.465 -10.4922C157.753 -10.2043 157.753 -9.77237 157.465 -9.48444L-7.75724 155.738C-7.90121 155.882 -8.09316 155.93 -8.28511 155.93Z" fill="#102D3B"/>
<path opacity="0.11" d="M-8.28511 149.212C-8.47707 149.212 -8.66902 149.164 -8.81298 149.02C-9.10091 148.732 -9.10091 148.3 -8.81298 148.012L156.458 -17.2103C156.745 -17.4983 157.177 -17.4983 157.465 -17.2103C157.753 -16.9224 157.753 -16.4905 157.465 -16.2026L-7.75724 149.02C-7.90121 149.164 -8.09316 149.212 -8.28511 149.212Z" fill="#102D3B"/>
<path opacity="0.11" d="M-8.28511 142.493C-8.47707 142.493 -8.66902 142.446 -8.81298 142.302C-9.10091 142.014 -9.10091 141.582 -8.81298 141.294L156.458 -23.9287C156.745 -24.2166 157.177 -24.2166 157.465 -23.9287C157.753 -23.6408 157.753 -23.2089 157.465 -22.921L-7.75724 142.302C-7.90121 142.446 -8.09316 142.493 -8.28511 142.493Z" fill="#102D3B"/>
<path opacity="0.11" d="M-8.28511 135.775C-8.47707 135.775 -8.66902 135.727 -8.81298 135.583C-9.10091 135.295 -9.10091 134.863 -8.81298 134.575L156.458 -30.6471C156.745 -30.935 157.177 -30.935 157.465 -30.6471C157.753 -30.3592 157.753 -29.9273 157.465 -29.6393L-7.75724 135.583C-7.90121 135.727 -8.09316 135.775 -8.28511 135.775Z" fill="#102D3B"/>
<path opacity="0.11" d="M-8.28511 129.057C-8.47707 129.057 -8.66902 129.009 -8.81298 128.865C-9.10091 128.577 -9.10091 128.145 -8.81298 127.857L156.458 -37.3654C156.745 -37.6533 157.177 -37.6533 157.465 -37.3654C157.753 -37.0774 157.753 -36.6455 157.465 -36.3576L-7.75724 128.865C-7.90121 129.009 -8.09316 129.057 -8.28511 129.057Z" fill="#102D3B"/>
<path opacity="0.11" d="M-8.28511 122.339C-8.47707 122.339 -8.66902 122.291 -8.81298 122.147C-9.10091 121.859 -9.10091 121.427 -8.81298 121.139L156.458 -44.0836C156.745 -44.3715 157.177 -44.3715 157.465 -44.0836C157.753 -43.7957 157.753 -43.3638 157.465 -43.0759L-7.75724 122.147C-7.90121 122.291 -8.09316 122.339 -8.28511 122.339Z" fill="#102D3B"/>
<path opacity="0.11" d="M-8.28511 115.62C-8.47707 115.62 -8.66902 115.572 -8.81298 115.428C-9.10091 115.14 -9.10091 114.708 -8.81298 114.42L156.458 -50.8021C156.745 -51.09 157.177 -51.09 157.465 -50.8021C157.753 -50.5142 157.753 -50.0823 157.465 -49.7944L-7.75724 115.428C-7.90121 115.572 -8.09316 115.62 -8.28511 115.62Z" fill="#102D3B"/>
<path opacity="0.11" d="M-8.28511 108.902C-8.47707 108.902 -8.66902 108.854 -8.81298 108.71C-9.10091 108.422 -9.10091 107.99 -8.81298 107.702L156.458 -57.5204C156.745 -57.8083 157.177 -57.8083 157.465 -57.5204C157.753 -57.2325 157.753 -56.8006 157.465 -56.5126L-7.75724 108.71C-7.90121 108.854 -8.09316 108.902 -8.28511 108.902Z" fill="#102D3B"/>
<path opacity="0.11" d="M-8.28511 102.184C-8.47707 102.184 -8.66902 102.136 -8.81298 101.992C-9.10091 101.704 -9.10091 101.272 -8.81298 100.984L156.458 -64.2386C156.745 -64.5266 157.177 -64.5266 157.465 -64.2386C157.753 -63.9507 157.753 -63.5188 157.465 -63.2309L-7.75724 101.992C-7.90121 102.136 -8.09316 102.184 -8.28511 102.184Z" fill="#102D3B"/>
<path opacity="0.11" d="M-8.28511 95.4651C-8.47707 95.4651 -8.66902 95.4171 -8.81298 95.2731C-9.10091 94.9852 -9.10091 94.5533 -8.81298 94.2654L156.458 -71.0051C156.745 -71.2931 157.177 -71.2931 157.465 -71.0051C157.753 -70.7172 157.753 -70.2853 157.465 -69.9974L-7.75724 95.2731C-7.90121 95.4171 -8.09316 95.4651 -8.28511 95.4651Z" fill="#102D3B"/>
<path opacity="0.11" d="M-8.28511 88.7467C-8.47707 88.7467 -8.66902 88.6987 -8.81298 88.5547C-9.10091 88.2668 -9.10091 87.8349 -8.81298 87.547L156.458 -77.7235C156.745 -78.0114 157.177 -78.0114 157.465 -77.7235C157.753 -77.4356 157.753 -77.0037 157.465 -76.7158L-7.75724 88.5547C-7.90121 88.6987 -8.09316 88.7467 -8.28511 88.7467Z" fill="#102D3B"/>
<path opacity="0.11" d="M-8.28511 82.0286C-8.47707 82.0286 -8.66902 81.9806 -8.81298 81.8366C-9.10091 81.5487 -9.10091 81.1168 -8.81298 80.8289L156.458 -84.4896C156.745 -84.7775 157.177 -84.7775 157.465 -84.4896C157.753 -84.2017 157.753 -83.7698 157.465 -83.4819L-7.75724 81.8366C-7.90121 81.9806 -8.09316 82.0286 -8.28511 82.0286Z" fill="#102D3B"/>
<path opacity="0.11" d="M-8.28511 75.3103C-8.47707 75.3103 -8.66902 75.2623 -8.81298 75.1183C-9.10091 74.8304 -9.10091 74.3985 -8.81298 74.1106L156.458 -91.2079C156.745 -91.4958 157.177 -91.4958 157.465 -91.2079C157.753 -90.92 157.753 -90.4881 157.465 -90.2001L-7.75724 75.1183C-7.90121 75.2623 -8.09316 75.3103 -8.28511 75.3103Z" fill="#102D3B"/>
<path opacity="0.11" d="M-8.28511 68.5918C-8.47707 68.5918 -8.66902 68.5438 -8.81298 68.3998C-9.10091 68.1119 -9.10091 67.68 -8.81298 67.3921L156.458 -97.9264C156.745 -98.2143 157.177 -98.2143 157.465 -97.9264C157.753 -97.6385 157.753 -97.2066 157.465 -96.9186L-7.75724 68.3998C-7.90121 68.5438 -8.09316 68.5918 -8.28511 68.5918Z" fill="#102D3B"/>
<path opacity="0.11" d="M-8.28511 61.8737C-8.47707 61.8737 -8.66902 61.8257 -8.81298 61.6817C-9.10091 61.3938 -9.10091 60.9619 -8.81298 60.674L156.458 -104.645C156.745 -104.932 157.177 -104.932 157.465 -104.645C157.753 -104.357 157.753 -103.925 157.465 -103.637L-7.75724 61.6817C-7.90121 61.8257 -8.09316 61.8737 -8.28511 61.8737Z" fill="#102D3B"/>
<path opacity="0.11" d="M-8.28511 55.1554C-8.47707 55.1554 -8.66902 55.1074 -8.81298 54.9634C-9.10091 54.6755 -9.10091 54.2436 -8.81298 53.9557L156.458 -111.363C156.745 -111.651 157.177 -111.651 157.465 -111.363C157.753 -111.075 157.753 -110.643 157.465 -110.355L-7.75724 54.9634C-7.90121 55.1074 -8.09316 55.1554 -8.28511 55.1554Z" fill="#102D3B"/>
<path opacity="0.11" d="M-8.28511 48.437C-8.47707 48.437 -8.66902 48.389 -8.81298 48.2451C-9.10091 47.9571 -9.10091 47.5252 -8.81298 47.2373L156.458 -118.081C156.745 -118.369 157.177 -118.369 157.465 -118.081C157.753 -117.793 157.753 -117.361 157.465 -117.073L-7.75724 48.2451C-7.90121 48.389 -8.09316 48.437 -8.28511 48.437Z" fill="#102D3B"/>
<path opacity="0.11" d="M-8.28511 41.7186C-8.47707 41.7186 -8.66902 41.6706 -8.81298 41.5267C-9.10091 41.2388 -9.10091 40.8069 -8.81298 40.5189L156.458 -124.8C156.745 -125.087 157.177 -125.087 157.465 -124.8C157.753 -124.512 157.753 -124.08 157.465 -123.792L-7.75724 41.5267C-7.90121 41.6706 -8.09316 41.7186 -8.28511 41.7186Z" fill="#102D3B"/>
<path opacity="0.11" d="M-8.28511 35.0004C-8.47707 35.0004 -8.66902 34.9524 -8.81298 34.8084C-9.10091 34.5205 -9.10091 34.0886 -8.81298 33.8007L141.293 -116.402C141.581 -116.69 142.013 -116.69 142.301 -116.402C142.589 -116.114 142.589 -115.682 142.301 -115.394L-7.75724 34.8084C-7.90121 34.9524 -8.09316 35.0004 -8.28511 35.0004Z" fill="#102D3B"/>
<path opacity="0.11" d="M-8.28511 28.2821C-8.47707 28.2821 -8.66902 28.2341 -8.81298 28.0902C-9.10091 27.8022 -9.10091 27.3703 -8.81298 27.0824L131.984 -113.762C132.272 -114.05 132.703 -114.05 132.991 -113.762C133.279 -113.474 133.279 -113.042 132.991 -112.754L-7.75724 28.0902C-7.90121 28.2341 -8.09316 28.2821 -8.28511 28.2821Z" fill="#102D3B"/>
</g>
<path d="M125.409 7.83899H113.892V197.871H125.409V7.83899Z" fill="#3E4B4F"/>
<path opacity="0.3" d="M12.158 7.83899H4V197.871H12.158V7.83899Z" fill="#CCDDE5"/>
<path d="M136.447 197.871H4V7.83899H136.447C141.198 7.83899 145.085 11.5821 145.085 16.3329V189.089C145.085 193.888 141.198 197.871 136.447 197.871Z" stroke="#102D3B" stroke-width="8" stroke-miterlimit="10" stroke-linecap="round" stroke-linejoin="round"/>
<path d="M20.3159 7.83899H4V197.871H20.3159V7.83899Z" stroke="#102D3B" stroke-width="8" stroke-miterlimit="10" stroke-linecap="round" stroke-linejoin="round"/>
<path d="M145.085 62.5453H4V116.292H145.085V62.5453Z" fill="#FF9852"/>
<path opacity="0.6" d="M20.3158 62.5453V116.292" stroke="#D85639" stroke-width="8" stroke-miterlimit="10"/>
<path d="M12.158 62.5453H4V116.292H12.158V62.5453Z" fill="#FDBA5D"/>
<path opacity="0.61" d="M125.41 62.5453H117.252V116.292H125.41V62.5453Z" fill="#D85639"/>
<path d="M145.085 62.5453H4V116.292H145.085V62.5453Z" stroke="#102D3B" stroke-width="8" stroke-miterlimit="10" stroke-linecap="round" stroke-linejoin="round"/>
<path d="M117.347 201.71H111.445C109.909 201.71 108.661 200.463 108.661 198.927V6.7833C108.661 5.24768 109.909 4 111.445 4H117.347C118.883 4 120.131 5.24768 120.131 6.7833V198.879C120.131 200.463 118.883 201.71 117.347 201.71Z" fill="#B7C8CE"/>
<path d="M117.347 201.71H111.445C109.909 201.71 108.661 200.463 108.661 198.927V6.7833C108.661 5.24768 109.909 4 111.445 4H117.347C118.883 4 120.131 5.24768 120.131 6.7833V198.879C120.131 200.463 118.883 201.71 117.347 201.71Z" stroke="#102D3B" stroke-width="8" stroke-miterlimit="10" stroke-linecap="round" stroke-linejoin="round"/>
<path d="M33.2726 219.802L18.8762 211.788V197.871H33.2726V219.802Z" fill="#EA3939"/>
<path opacity="0.62" d="M33.2726 197.871H18.8762V203.294H33.2726V197.871Z" fill="#EA3939"/>
<path d="M33.2726 219.802L18.8762 211.788V197.871H33.2726V219.802Z" stroke="#102D3B" stroke-width="8" stroke-miterlimit="10" stroke-linecap="round" stroke-linejoin="round"/>
</svg>
