<svg width="21" height="21" viewBox="0 0 21 21" fill="none" xmlns="http://www.w3.org/2000/svg">
<path d="M20.9595 11.47C20.771 9.57351 19.9237 7.78557 18.5737 6.43552C17.42 5.28186 16.0079 4.54049 14.522 4.21084V3.1687C15.1289 3.01772 15.58 2.46839 15.58 1.81545C15.58 1.04648 14.9544 0.420898 14.1854 0.420898H11.2323C10.4633 0.420898 9.83771 1.04648 9.83771 1.81545C9.83771 2.46835 10.2888 3.01768 10.8956 3.1687V4.21375C9.41434 4.5448 8.00691 5.28514 6.85648 6.43556C6.60473 6.68732 6.37257 6.95143 6.16007 7.22591C6.14977 7.22513 6.13948 7.22435 6.12898 7.22435H3.20612C2.97963 7.22435 2.79596 7.40798 2.79596 7.63451C2.79596 7.86104 2.97963 8.04467 3.20612 8.04467H5.60196C5.30123 8.54815 5.05874 9.07689 4.87417 9.62118H0.410163C0.183671 9.62118 0 9.80481 0 10.0313C0 10.2579 0.183671 10.4415 0.410163 10.4415H4.64239C4.52418 10.9604 4.45634 11.4885 4.43882 12.018H2.62504C2.39855 12.018 2.21488 12.2017 2.21488 12.4282C2.21488 12.6547 2.39855 12.8384 2.62504 12.8384H4.45191C4.48652 13.3693 4.57188 13.8974 4.70801 14.4149H2.05081C1.82432 14.4149 1.64065 14.5985 1.64065 14.8251C1.64065 15.0516 1.82432 15.2352 2.05081 15.2352H4.96978C5.37215 16.2996 6.00097 17.2973 6.85648 18.1528C8.20781 19.5041 9.99759 20.3516 11.8961 20.5392C12.167 20.5659 12.4382 20.5792 12.709 20.5792C14.3095 20.5792 15.8897 20.116 17.2305 19.2428C17.4203 19.1192 17.474 18.8651 17.3504 18.6753C17.2268 18.4854 16.9727 18.4318 16.7829 18.5554C13.8479 20.4666 9.91716 20.0534 7.43654 17.5728C4.52594 14.6622 4.52594 9.9263 7.43654 7.01566C10.3471 4.1051 15.083 4.1051 17.9936 7.01566C20.4709 9.49304 20.8864 13.4204 18.9815 16.354C18.8581 16.5439 18.9121 16.798 19.1021 16.9213C19.2922 17.0447 19.5461 16.9907 19.6695 16.8007C20.6873 15.2333 21.1454 13.3402 20.9595 11.47ZM10.658 1.81549C10.658 1.49885 10.9156 1.24126 11.2323 1.24126H14.1854C14.5021 1.24126 14.7597 1.49885 14.7597 1.81549C14.7597 2.13214 14.5021 2.38972 14.1854 2.38972H14.1119H11.3058H11.2323C10.9156 2.38972 10.658 2.1321 10.658 1.81549ZM11.716 4.07274V3.21005H13.7017V4.07126C13.0423 3.99284 12.3752 3.99333 11.716 4.07274Z" fill="white"/>
<path d="M18.2837 17.4524C18.1754 17.4524 18.07 17.4963 17.9938 17.5726C17.9171 17.6489 17.8735 17.7547 17.8735 17.8625C17.8735 17.9704 17.9171 18.0762 17.9938 18.1525C18.07 18.2292 18.1755 18.2727 18.2837 18.2727C18.3916 18.2727 18.497 18.2292 18.5737 18.1525C18.65 18.0762 18.6938 17.9704 18.6938 17.8625C18.6938 17.7547 18.65 17.6489 18.5737 17.5726C18.497 17.4963 18.3915 17.4524 18.2837 17.4524Z" fill="white"/>
<path d="M12.7149 5.93134C9.20641 5.93134 6.35205 8.78566 6.35205 12.2941C6.35205 15.8026 9.20641 18.657 12.7149 18.657C16.2233 18.657 19.0777 15.8026 19.0777 12.2941C19.0777 8.78566 16.2233 5.93134 12.7149 5.93134ZM12.7149 17.8366C9.6587 17.8366 7.17238 15.3503 7.17238 12.2941C7.17238 9.23803 9.6587 6.75166 12.7149 6.75166C15.771 6.75166 18.2573 9.23803 18.2573 12.2941C18.2573 15.3503 15.771 17.8366 12.7149 17.8366Z" fill="white"/>
<path d="M15.3094 9.11958L13.2779 11.1511C13.108 11.0671 12.9169 11.0196 12.7149 11.0196C12.5129 11.0196 12.3218 11.0671 12.1519 11.1511L11.2427 10.2419C11.0825 10.0817 10.8229 10.0817 10.6626 10.2419C10.5024 10.402 10.5024 10.6617 10.6626 10.8219L11.5718 11.7311C11.4878 11.901 11.4404 12.0921 11.4404 12.2941C11.4404 12.9969 12.0121 13.5687 12.7149 13.5687C13.4177 13.5687 13.9894 12.9969 13.9894 12.2941C13.9894 12.0921 13.942 11.901 13.858 11.7311L15.8299 9.75923L15.8895 9.69963C16.0496 9.53946 16.0496 9.27975 15.8895 9.11958C15.7293 8.95941 15.4697 8.95941 15.3094 9.11958ZM12.7149 12.7484C12.4645 12.7484 12.2607 12.5446 12.2607 12.2942C12.2607 12.0437 12.4645 11.8399 12.7149 11.8399C12.9653 11.8399 13.1691 12.0437 13.1691 12.2942C13.1691 12.5446 12.9653 12.7484 12.7149 12.7484Z" fill="white"/>
<path d="M17.1007 11.889H16.7207C16.4942 11.889 16.3105 12.0726 16.3105 12.2991C16.3105 12.5257 16.4942 12.7093 16.7207 12.7093H17.1007C17.3272 12.7093 17.5109 12.5257 17.5109 12.2991C17.5109 12.0726 17.3272 11.889 17.1007 11.889Z" fill="white"/>
<path d="M8.70956 11.879H8.32959C8.1031 11.879 7.91943 12.0626 7.91943 12.2891C7.91943 12.5157 8.1031 12.6993 8.32959 12.6993H8.70956C8.93605 12.6993 9.11971 12.5157 9.11971 12.2891C9.11971 12.0626 8.93605 11.879 8.70956 11.879Z" fill="white"/>
<path d="M12.7202 8.69882C12.9467 8.69882 13.1304 8.51519 13.1304 8.28866V7.90869C13.1304 7.68216 12.9467 7.49854 12.7202 7.49854C12.4937 7.49854 12.3101 7.68216 12.3101 7.90869V8.28866C12.3101 8.51519 12.4937 8.69882 12.7202 8.69882Z" fill="white"/>
<path d="M12.71 15.8894C12.4835 15.8894 12.2998 16.073 12.2998 16.2996V16.6795C12.2998 16.9061 12.4835 17.0897 12.71 17.0897C12.9364 17.0897 13.1201 16.9061 13.1201 16.6795V16.2996C13.1201 16.073 12.9364 15.8894 12.71 15.8894Z" fill="white"/>
</svg>
