<svg width="20" height="20" viewBox="0 0 20 20" fill="none" xmlns="http://www.w3.org/2000/svg">
<path fill-rule="evenodd" clip-rule="evenodd" d="M0.72934 5.88227C2.2091 2.31774 5.6908 -0.0040403 9.55028 5.27842e-06C12.0795 3.88598e-06 14.505 1.00543 16.2925 2.79481C18.0801 4.5842 19.0829 7.01076 19.0803 9.54001C19.0803 13.3995 16.7548 16.8787 13.1888 18.3548C9.62268 19.8308 5.51857 19.0128 2.79094 16.2823C0.0633101 13.5518 -0.750422 9.4468 0.72934 5.88227ZM17.0303 12.44C17.3794 11.5133 17.5557 10.5303 17.5503 9.54C17.5727 7.7187 16.973 5.94425 15.8503 4.51001C15.4003 5.26001 14.5503 6.38001 13.5003 6.38001C13.0963 6.34753 12.6898 6.38818 12.3003 6.50001V6.61001C12.3003 6.79001 12.7903 7.28001 13.0503 7.54001C13.6978 8.02285 14.129 8.74143 14.2503 9.54C14.2503 11.14 14.4103 11.63 14.5503 11.75C15.4148 11.8118 16.2581 12.0465 17.0303 12.44ZM1.55027 9.54C1.54118 7.76105 2.1253 6.02982 3.21027 4.62001C3.49363 5.13679 4.04105 5.45291 4.63028 5.44001C5.43942 5.84799 6.15463 6.42016 6.73028 7.12001C6.30673 7.38043 5.92281 7.70037 5.59028 8.07C5.55941 8.09973 5.5258 8.13245 5.49019 8.16713L5.49018 8.16714C5.21431 8.43578 4.81855 8.82115 4.65028 8.83C4.1873 8.81601 3.73909 8.99378 3.41157 9.3213C3.08405 9.64882 2.90628 10.097 2.92027 10.56C2.92171 10.6746 2.94906 10.7874 3.00027 10.89L3.90027 12.69C3.91176 13.7253 4.07689 14.7532 4.39028 15.74C2.56605 14.2005 1.52457 11.9269 1.55027 9.54ZM6.82028 17.06C7.69541 17.3776 8.61928 17.5401 9.55028 17.54V17.57C12.3025 17.5885 14.871 16.1909 16.3503 13.87C15.7471 13.5779 15.1031 13.379 14.4403 13.28C12.7103 13.28 12.7103 10.8 12.7103 9.6C12.7103 9.41877 12.2645 8.9737 11.989 8.69869C11.9757 8.68538 11.9627 8.67247 11.9503 8.66C11.3073 8.17462 10.8801 7.45664 10.7603 6.66001C10.7603 4.93001 12.5203 4.93001 13.4603 4.93001C13.7203 4.92001 14.3403 4.18001 14.7203 3.44001C11.755 0.929869 7.41497 0.912998 4.43028 3.40001C4.44541 3.48601 4.44541 3.574 4.43028 3.66001C4.44028 3.90001 4.55028 3.90001 4.66028 3.90001C5.86028 3.90001 8.55028 6.34001 8.59028 7.48001C8.59187 7.73708 8.48345 7.98257 8.29236 8.15454C8.10128 8.32652 7.84577 8.40857 7.59028 8.38C7.41028 8.39001 6.92028 8.88 6.66028 9.14001C6.17381 9.78352 5.45701 10.2136 4.66028 10.34C4.58028 10.34 4.46028 10.34 4.46028 10.44L5.33028 12.11C5.38149 12.2126 5.40884 12.3254 5.41028 12.44C5.41028 13.53 5.65028 15.3 6.17028 15.83C6.53309 16.1443 6.76499 16.5832 6.82028 17.06Z" fill="#0B1C3F"/>
</svg>
