<svg width="24" height="24" viewBox="0 0 24 24" fill="none" xmlns="http://www.w3.org/2000/svg">
<path fill-rule="evenodd" clip-rule="evenodd" d="M22.8859 12.2614C22.8859 11.4459 22.8128 10.6618 22.6769 9.90912H11.8459V14.3575H18.035C17.7684 15.795 16.9582 17.013 15.7403 17.8284V20.7139H19.4569C21.6314 18.7118 22.8859 15.7637 22.8859 12.2614Z" fill="#4285F4"/>
<path fill-rule="evenodd" clip-rule="evenodd" d="M11.8459 23.4998C14.9509 23.4998 17.5541 22.47 19.4568 20.7137L15.7402 17.8282C14.7105 18.5182 13.3932 18.9259 11.8459 18.9259C8.85068 18.9259 6.31546 16.903 5.41114 14.1848H1.56909V17.1644C3.46136 20.9228 7.35046 23.4998 11.8459 23.4998Z" fill="#34A853"/>
<path fill-rule="evenodd" clip-rule="evenodd" d="M5.41117 14.1851C5.18117 13.4951 5.05049 12.758 5.05049 12.0001C5.05049 11.2421 5.18117 10.5051 5.41117 9.81506V6.83551H1.56913C0.790265 8.38801 0.345947 10.1444 0.345947 12.0001C0.345947 13.8557 0.790265 15.6121 1.56913 17.1646L5.41117 14.1851Z" fill="#FBBC05"/>
<path fill-rule="evenodd" clip-rule="evenodd" d="M11.8459 5.07386C13.5343 5.07386 15.0502 5.65409 16.242 6.79364L19.5405 3.49523C17.5489 1.63955 14.9457 0.5 11.8459 0.5C7.35046 0.5 3.46136 3.07705 1.56909 6.83545L5.41114 9.815C6.31546 7.09682 8.85068 5.07386 11.8459 5.07386Z" fill="#EA4335"/>
</svg>
