<svg width="22" height="22" viewBox="0 0 22 22" fill="none" xmlns="http://www.w3.org/2000/svg">
<path fill-rule="evenodd" clip-rule="evenodd" d="M5.49998 1.83334H16.5C18.525 1.83334 20.1666 3.47497 20.1666 5.50001V16.5C20.1666 18.5251 18.525 20.1667 16.5 20.1667H5.49998C3.47494 20.1667 1.83331 18.5251 1.83331 16.5V5.50001C1.83331 3.47497 3.47494 1.83334 5.49998 1.83334ZM18.1204 18.1205C18.5502 17.6907 18.7916 17.1078 18.7916 16.5V5.50001C18.7916 4.89222 18.5502 4.30933 18.1204 3.87956C17.6907 3.44979 17.1078 3.20834 16.5 3.20834H5.49998C4.23433 3.20834 3.20831 4.23436 3.20831 5.50001V16.5C3.20831 17.1078 3.44976 17.6907 3.87953 18.1205C4.3093 18.5502 4.89219 18.7917 5.49998 18.7917H16.5C17.1078 18.7917 17.6907 18.5502 18.1204 18.1205Z" fill="#0095DA"/>
<path d="M14.8866 10.3125H7.11328C6.73359 10.3125 6.42578 10.6203 6.42578 11C6.42578 11.3797 6.73359 11.6875 7.11328 11.6875H14.8866C15.2663 11.6875 15.5741 11.3797 15.5741 11C15.5741 10.6203 15.2663 10.3125 14.8866 10.3125V10.3125Z" fill="#0095DA"/>
</svg>
