<svg width="106" height="106" viewBox="0 0 106 106" fill="none" xmlns="http://www.w3.org/2000/svg">
<path d="M53 71.9033C50.6705 71.9033 48.3934 72.5941 46.4566 73.8882C44.5197 75.1824 43.0101 77.0218 42.1187 79.1739C41.2273 81.326 40.994 83.6942 41.4485 85.9788C41.9029 88.2635 43.0247 90.3621 44.6718 92.0092C46.319 93.6564 48.4176 94.7781 50.7022 95.2326C52.9869 95.687 55.355 95.4538 57.5071 94.5623C59.6592 93.6709 61.4987 92.1613 62.7928 90.2245C64.087 88.2876 64.7777 86.0105 64.7777 83.6811C64.7777 80.5574 63.5369 77.5617 61.3281 75.353C59.1193 73.1442 56.1236 71.9033 53 71.9033ZM53 89.57C51.8352 89.57 50.6967 89.2246 49.7283 88.5775C48.7598 87.9304 48.005 87.0107 47.5593 85.9347C47.1136 84.8586 46.997 83.6746 47.2242 82.5322C47.4514 81.3899 48.0123 80.3406 48.8359 79.517C49.6595 78.6934 50.7088 78.1326 51.8511 77.9054C52.9934 77.6781 54.1775 77.7948 55.2535 78.2405C56.3296 78.6862 57.2493 79.441 57.8964 80.4094C58.5435 81.3778 58.8888 82.5164 58.8888 83.6811C58.8888 85.2429 58.2684 86.7408 57.164 87.8452C56.0596 88.9495 54.5618 89.57 53 89.57Z" fill="#D5D5D5"/>
<path d="M77.1739 64.336C77.4013 64.0214 77.5642 63.6648 77.6533 63.2869C77.7424 62.909 77.7558 62.5172 77.6929 62.134C77.6299 61.7509 77.4919 61.384 77.2865 61.0544C77.0812 60.7249 76.8128 60.4392 76.4966 60.2138C72.0867 57.0469 67.0772 54.8127 61.7744 53.6477L73.1694 65.0427C73.7997 65.4625 74.5675 65.6232 75.3132 65.4916C76.059 65.36 76.7253 64.9462 77.1739 64.336Z" fill="#D5D5D5"/>
<path d="M53.1473 31.5645C49.0323 31.5755 44.9287 31.9997 40.8984 32.8306L46.0218 37.9539C48.3839 37.6354 50.7639 37.4682 53.1473 37.4533C64.2768 37.4578 75.1454 40.8241 84.329 47.1111C84.973 47.4801 85.7325 47.5922 86.4557 47.4251C87.1788 47.258 87.8121 46.824 88.229 46.21C88.6458 45.5959 88.8153 44.847 88.7037 44.1133C88.592 43.3796 88.2074 42.7151 87.6268 42.2528C77.4725 35.2986 65.4547 31.5732 53.1473 31.5645Z" fill="#D5D5D5"/>
<path d="M98.786 24.1446C87.8536 16.9208 75.3624 12.3959 62.3398 10.9421C49.3173 9.48837 36.1357 11.1473 23.8794 15.7823L28.5316 20.4051C39.6198 16.6243 51.4277 15.4386 63.0462 16.9394C74.6646 18.4402 85.7837 22.5875 95.5472 29.0618C96.1992 29.4759 96.9879 29.6173 97.7432 29.4553C98.4985 29.2933 99.1599 28.8411 99.5848 28.196C100.01 27.5509 100.164 26.7646 100.015 26.0068C99.8652 25.2489 99.424 24.5801 98.786 24.1446Z" fill="#D5D5D5"/>
<path d="M5.41772 13.9861L12.5727 21.1411C10.7472 22.1422 8.95106 23.2022 7.18439 24.38C6.86346 24.5966 6.58831 24.8742 6.37467 25.1971C6.16103 25.5199 6.01307 25.8817 5.93925 26.2618C5.79016 27.0293 5.95208 27.8246 6.38939 28.4728C6.8267 29.121 7.50359 29.5688 8.27113 29.7179C9.03867 29.867 9.83401 29.7051 10.4822 29.2678C12.5433 27.8839 14.7222 26.5 16.9011 25.4695L28.2961 36.8645C24.8123 38.3933 21.4802 40.2467 18.3438 42.4C17.8806 42.8947 17.6022 43.534 17.5556 44.2101C17.509 44.8862 17.6971 45.5576 18.088 46.1112C18.479 46.6647 19.0489 47.0665 19.7016 47.2487C20.3544 47.4308 21.05 47.3822 21.6711 47.1111C25.136 44.7336 28.8601 42.758 32.7716 41.2222L45.0205 53.4711C39.3799 54.6606 34.0652 57.0617 29.4444 60.5084C28.8689 60.988 28.4978 61.669 28.4068 62.4126C28.3158 63.1562 28.5117 63.9066 28.9546 64.5109C29.3974 65.1151 30.054 65.5279 30.7905 65.665C31.5271 65.8021 32.2882 65.6533 32.9188 65.2489C37.9415 61.6008 43.8689 59.4009 50.0555 58.8889L81.8555 90.6889L86.0072 86.5372L9.45161 9.98169L5.41772 13.9861Z" fill="#D5D5D5"/>
</svg>
