<svg width="56" height="56" viewBox="0 0 56 56" fill="none" xmlns="http://www.w3.org/2000/svg">
<path fill-rule="evenodd" clip-rule="evenodd" d="M19.8334 5.83337H36.1667C43.8987 5.83337 50.1667 12.1014 50.1667 19.8334V36.1667C50.1667 43.8987 43.8987 50.1667 36.1667 50.1667H19.8334C12.1014 50.1667 5.83337 43.8987 5.83337 36.1667V19.8334C5.83337 12.1014 12.1014 5.83337 19.8334 5.83337ZM36.1667 46.6667C41.9604 46.6539 46.6539 41.9604 46.6667 36.1667V19.8334C46.6539 14.0397 41.9604 9.34621 36.1667 9.33337H19.8334C14.0397 9.34621 9.34621 14.0397 9.33337 19.8334V36.1667C9.34621 41.9604 14.0397 46.6539 19.8334 46.6667H36.1667Z" fill="#5C5C5F"/>
<path d="M35.4201 16.3334C34.4588 16.3459 33.6826 17.1221 33.6701 18.0834C33.6458 19.5563 33.0323 20.9581 31.9668 21.9754C30.9013 22.9927 29.4726 23.5406 28.0001 23.4967C24.9671 23.5884 22.4316 21.2093 22.3301 18.1767C22.3301 17.2102 21.5466 16.4267 20.5801 16.4267C19.6136 16.4267 18.8301 17.2102 18.8301 18.1767C18.9322 23.1421 23.0344 27.0878 28.0001 26.9967C32.9657 27.0878 37.068 23.1421 37.1701 18.1767C37.1957 17.6966 37.0227 17.2271 36.6917 16.8785C36.3607 16.5298 35.9008 16.3327 35.4201 16.3334Z" fill="#5C5C5F"/>
</svg>
