<svg width="30" height="32" viewBox="0 0 30 32" fill="none" xmlns="http://www.w3.org/2000/svg">
<path fill-rule="evenodd" clip-rule="evenodd" d="M17.4334 0.683331L27.4334 6.23333C29.0226 7.11869 30.0056 8.79742 30 10.6167V21.3833C30.0056 23.2026 29.0226 24.8813 27.4334 25.7667L17.4334 31.3167C15.9206 32.1594 14.0795 32.1594 12.5667 31.3167L2.56669 25.7667C0.977406 24.8813 -0.00557277 23.2026 2.37711e-05 21.3833V10.6167C-0.00557277 8.79742 0.977406 7.11869 2.56669 6.23333L12.5667 0.683331C14.0795 -0.159418 15.9206 -0.159418 17.4334 0.683331ZM26.15 23.5833C26.9396 23.1314 27.4287 22.2931 27.4334 21.3833V10.6167C27.4287 9.70691 26.9396 8.86856 26.15 8.41666L16.15 2.86666C15.3936 2.44529 14.4731 2.44529 13.7167 2.86666L3.7167 8.41666C2.9271 8.86856 2.43807 9.70691 2.43337 10.6167V21.3833C2.43807 22.2931 2.9271 23.1314 3.7167 23.5833L13.7167 29.1333C14.4731 29.5547 15.3936 29.5547 16.15 29.1333L26.15 23.5833Z" fill="#5C5C5F"/>
<path d="M22.7997 9.66668L15.7497 13.5833C15.2856 13.8513 14.7138 13.8513 14.2497 13.5833L7.19971 9.66668C6.80886 9.43794 6.32486 9.4385 5.93453 9.66813C5.5442 9.89776 5.3086 10.3206 5.31867 10.7733C5.32874 11.2261 5.5829 11.638 5.98305 11.85L13.033 15.7667C13.2669 15.8908 13.5126 15.9913 13.7664 16.0667V23.5C13.7664 24.1904 14.326 24.75 15.0164 24.75C15.7067 24.75 16.2664 24.1904 16.2664 23.5V16C16.51 15.9332 16.7449 15.8381 16.9664 15.7167L24.0164 11.8C24.6033 11.4565 24.808 10.7068 24.4769 10.1127C24.1459 9.51863 23.4006 9.29823 22.7997 9.61668V9.66668Z" fill="#5C5C5F"/>
</svg>
