<svg width="33" height="33" viewBox="0 0 33 33" fill="none" xmlns="http://www.w3.org/2000/svg">
<path d="M21.6562 2.0625C20.2069 2.06217 18.7777 2.40133 17.483 3.05282C16.1884 3.7043 15.0644 4.64999 14.201 5.8141C13.3376 6.97821 12.759 8.32837 12.5114 9.75638C12.2637 11.1844 12.3541 12.6506 12.7751 14.0374L2.0625 24.75V30.9375H8.25L18.9626 20.2249C20.2392 20.6124 21.5843 20.7201 22.9063 20.5407C24.2283 20.3613 25.4961 19.8991 26.6233 19.1854C27.7504 18.4718 28.7105 17.5235 29.4381 16.4052C30.1656 15.287 30.6435 14.025 30.8392 12.7053C31.0349 11.3857 30.9439 10.0393 30.5722 8.75804C30.2005 7.47676 29.557 6.29066 28.6855 5.28058C27.8139 4.2705 26.7349 3.46018 25.5219 2.90484C24.3088 2.3495 22.9903 2.06219 21.6562 2.0625ZM21.6562 18.5625C20.9462 18.5621 20.2402 18.4572 19.5607 18.2511L18.3779 17.8922L17.5044 18.7657L14.224 22.0461L12.8019 20.625L11.3437 22.0832L12.7658 23.5053L11.1303 25.1408L9.70819 23.7188L8.25 25.1769L9.67209 26.599L7.39612 28.875H4.125V25.6039L14.2333 15.4956L15.1078 14.6221L14.7489 13.4392C14.3082 11.9862 14.3368 10.4312 14.8308 8.99535C15.3247 7.55953 16.2589 6.31602 17.5003 5.44173C18.7418 4.56743 20.2273 4.10687 21.7456 4.12555C23.264 4.14423 24.7377 4.6412 25.9573 5.54577C27.1769 6.45035 28.0801 7.71645 28.5386 9.164C28.9971 10.6115 28.9875 12.1668 28.5111 13.6086C28.0347 15.0503 27.1158 16.3051 25.8851 17.1945C24.6545 18.0839 23.1747 18.5626 21.6562 18.5625Z" fill="#A5A5A5"/>
<path d="M22.6875 12.375C23.8266 12.375 24.75 11.4516 24.75 10.3125C24.75 9.17341 23.8266 8.25 22.6875 8.25C21.5484 8.25 20.625 9.17341 20.625 10.3125C20.625 11.4516 21.5484 12.375 22.6875 12.375Z" fill="#A5A5A5"/>
</svg>
