<svg width="20" height="21" viewBox="0 0 20 21" fill="none" xmlns="http://www.w3.org/2000/svg">
<path d="M17 8H3C1.89543 8 1 8.89543 1 10V18C1 19.1046 1.89543 20 3 20H17C18.1046 20 19 19.1046 19 18V10C19 8.89543 18.1046 8 17 8Z" stroke="#5C5C5F" stroke-width="2" stroke-linecap="round" stroke-linejoin="round"/>
<path d="M4 4C4 3.20435 4.31607 2.44129 4.87868 1.87868C5.44129 1.31607 6.20435 1 7 1H13C13.7956 1 14.5587 1.31607 15.1213 1.87868C15.6839 2.44129 16 3.20435 16 4V8H4V4Z" stroke="#5C5C5F" stroke-width="2" stroke-linecap="round" stroke-linejoin="round"/>
</svg>
