<svg width="13" height="21" viewBox="0 0 13 21" fill="none" xmlns="http://www.w3.org/2000/svg">
<path fill-rule="evenodd" clip-rule="evenodd" d="M10.6383 0.000237144H2.36167C1.07941 -0.0178761 0.0237303 1.00391 0 2.28607V18.2977C0.0237303 19.5799 1.07941 20.6017 2.36167 20.5836H10.6383C11.9206 20.6017 12.9763 19.5799 13 18.2977V2.28607C12.9763 1.00391 11.9206 -0.0178761 10.6383 0.000237144ZM5.14583 1.62524H7.85417V2.1669C7.85417 2.31648 7.73291 2.43774 7.58333 2.43774H5.41667C5.26709 2.43774 5.14583 2.31648 5.14583 2.1669V1.62524ZM10.6383 18.9586C11.0234 18.9771 11.3517 18.6825 11.375 18.2977V2.28607C11.3517 1.90129 11.0234 1.60674 10.6383 1.62524H9.47917V2.1669C9.47917 2.66971 9.27943 3.15192 8.92389 3.50746C8.56835 3.863 8.08614 4.06274 7.58333 4.06274H5.41667C4.36963 4.06274 3.52083 3.21394 3.52083 2.1669V1.62524H2.36167C1.97662 1.60674 1.64828 1.90129 1.625 2.28607V18.2977C1.64828 18.6825 1.97662 18.9771 2.36167 18.9586H10.6383Z" fill="#0B1C3F"/>
</svg>
