<svg width="23" height="23" viewBox="0 0 23 23" fill="none" xmlns="http://www.w3.org/2000/svg">
<path d="M16.1192 14.8397C15.7695 14.664 15.3435 14.8003 15.1608 15.1464C14.992 15.499 15.1316 15.9219 15.4771 16.1047C16.3204 16.536 16.7996 17.0631 16.7996 17.571C16.7996 18.6539 14.5379 19.8614 11.5096 19.8614C8.48126 19.8614 6.21001 18.6635 6.21001 17.6093C6.21001 17.111 6.68917 16.5743 7.53251 16.1431C7.78541 16.0417 7.95923 15.806 7.98138 15.5344C8.00354 15.2628 7.87022 15.0021 7.6371 14.861C7.40397 14.72 7.11113 14.7228 6.88084 14.8685C5.71732 15.307 4.90617 16.3712 4.79167 17.6093C4.79167 19.7368 7.66667 21.3372 11.5 21.3372C15.3333 21.3372 18.2083 19.7368 18.2083 17.6093C18.1044 16.3605 17.2914 15.2827 16.1192 14.8397Z" fill="#5C5C5F"/>
<path fill-rule="evenodd" clip-rule="evenodd" d="M10.7812 18.031V13.891C7.62536 13.5108 5.31159 10.7384 5.50205 7.56535C5.6925 4.39235 8.32128 1.91663 11.5 1.91663C14.6787 1.91663 17.3075 4.39235 17.498 7.56535C17.6884 10.7384 15.3746 13.5108 12.2188 13.891V18.031C12.2188 18.4279 11.897 18.7497 11.5 18.7497C11.103 18.7497 10.7812 18.4279 10.7812 18.031ZM15.7399 6.17271C15.0284 4.4601 13.3545 3.34544 11.5 3.34932C8.97756 3.35459 6.93402 5.39812 6.92875 7.92057C6.92488 9.77508 8.03954 11.449 9.75214 12.1604C11.4648 12.8719 13.4374 12.4806 14.7487 11.1693C16.0601 9.85794 16.4514 7.88532 15.7399 6.17271Z" fill="#5C5C5F"/>
<path d="M9.19043 8.9843C9.58738 8.9843 9.90918 8.6625 9.90918 8.26555C9.90918 7.16466 10.8016 6.27222 11.9025 6.27222C12.2995 6.27222 12.6213 5.95042 12.6213 5.55347C12.6213 5.15651 12.2995 4.83472 11.9025 4.83472C10.9901 4.83725 10.116 5.20216 9.47257 5.84916C8.82917 6.49617 8.46913 7.37226 8.47168 8.28472C8.4742 8.47281 8.55135 8.65218 8.68615 8.78339C8.82094 8.91459 9.00234 8.98686 9.19043 8.9843Z" fill="#5C5C5F"/>
</svg>
