<svg width="22" height="22" viewBox="0 0 22 22" fill="none" xmlns="http://www.w3.org/2000/svg">
<path fill-rule="evenodd" clip-rule="evenodd" d="M5.49998 1.83334H16.5C18.525 1.83334 20.1666 3.47497 20.1666 5.50001V16.5C20.1666 18.5251 18.525 20.1667 16.5 20.1667H5.49998C3.47494 20.1667 1.83331 18.5251 1.83331 16.5V5.50001C1.83331 3.47497 3.47494 1.83334 5.49998 1.83334ZM18.0621 18.0621C18.4764 17.6478 18.7091 17.0859 18.7091 16.5V5.50001C18.7091 4.9141 18.4764 4.35219 18.0621 3.93789C17.6478 3.52359 17.0859 3.29084 16.5 3.29084H5.49998C4.27989 3.29084 3.29081 4.27992 3.29081 5.50001V16.5C3.29081 17.0859 3.52356 17.6478 3.93786 18.0621C4.35216 18.4764 4.91407 18.7092 5.49998 18.7092H16.5C17.0859 18.7092 17.6478 18.4764 18.0621 18.0621Z" fill="#0095DA"/>
<path d="M14.6666 10.3125H11.6875V7.33334C11.6875 6.95365 11.3797 6.64584 11 6.64584C10.6203 6.64584 10.3125 6.95365 10.3125 7.33334V10.3125H7.33331C6.95362 10.3125 6.64581 10.6203 6.64581 11C6.64581 11.3797 6.95362 11.6875 7.33331 11.6875H10.3125V14.6667C10.3125 15.0464 10.6203 15.3542 11 15.3542C11.3797 15.3542 11.6875 15.0464 11.6875 14.6667V11.6875H14.6666C15.0463 11.6875 15.3541 11.3797 15.3541 11C15.3541 10.6203 15.0463 10.3125 14.6666 10.3125Z" fill="#0095DA"/>
</svg>
