<svg width="22" height="22" viewBox="0 0 22 22" fill="none" xmlns="http://www.w3.org/2000/svg">
<path d="M11.5091 21.7141C11.2134 21.715 10.9204 21.6572 10.6471 21.544C10.3739 21.4308 10.1258 21.2646 9.91724 21.0548L1.10399 12.2404C0.874186 12.0113 0.696837 11.735 0.584185 11.4307C0.471534 11.1263 0.426261 10.8011 0.451492 10.4776L1.01399 3.09082C1.05279 2.55341 1.2842 2.04804 1.66572 1.66756C2.04723 1.28708 2.55322 1.05704 3.09074 1.0197L10.4775 0.457199C10.5349 0.444824 10.5934 0.444824 10.6507 0.444824C11.2468 0.446477 11.8181 0.683404 12.2404 1.10407L21.0547 9.91733C21.2638 10.1263 21.4296 10.3743 21.5427 10.6474C21.6558 10.9204 21.7141 11.2131 21.7141 11.5086C21.7141 11.8042 21.6558 12.0968 21.5427 12.3699C21.4296 12.6429 21.2638 12.891 21.0547 13.0999L13.101 21.0548C12.8925 21.2646 12.6444 21.4308 12.3711 21.544C12.0979 21.6572 11.8049 21.715 11.5091 21.7141ZM10.6496 2.69482L3.25837 3.25732L2.69587 10.6497L11.5091 19.4641L19.4629 11.5103L10.6496 2.69482ZM6.73574 8.98583C6.139 8.98583 5.56671 8.74877 5.14475 8.32682C4.72279 7.90486 4.48574 7.33256 4.48574 6.73583C4.48574 6.13909 4.72279 5.56679 5.14475 5.14483C5.56671 4.72288 6.139 4.48582 6.73574 4.48582C7.33248 4.48582 7.90477 4.72288 8.32673 5.14483C8.74869 5.56679 8.98574 6.13909 8.98574 6.73583C8.98574 7.33256 8.74869 7.90486 8.32673 8.32682C7.90477 8.74877 7.33248 8.98583 6.73574 8.98583Z" fill="#5C5C5F"/>
</svg>
