<svg width="22" height="27" viewBox="0 0 22 27" fill="none" xmlns="http://www.w3.org/2000/svg">
<path d="M11 26.8125C12.5125 26.8125 13.75 25.575 13.75 24.0625H8.25C8.25 25.575 9.4875 26.8125 11 26.8125ZM19.25 18.5625V11.6875C19.25 7.46625 17.0087 3.9325 13.0625 2.9975V2.0625C13.0625 0.92125 12.1412 0 11 0C9.85875 0 8.9375 0.92125 8.9375 2.0625V2.9975C5.005 3.9325 2.75 7.4525 2.75 11.6875V18.5625L0 21.3125V22.6875H22V21.3125L19.25 18.5625ZM16.5 19.9375H5.5V11.6875C5.5 8.2775 7.57625 5.5 11 5.5C14.4237 5.5 16.5 8.2775 16.5 11.6875V19.9375Z" fill="black"/>
</svg>
