<svg width="30" height="30" viewBox="0 0 30 30" fill="none" xmlns="http://www.w3.org/2000/svg">
<path fill-rule="evenodd" clip-rule="evenodd" d="M26.0389 10.7324C26.3167 11.4093 26.9749 11.8521 27.7066 11.8542C28.6996 11.8622 29.5004 12.6695 29.5003 13.6625V16.7834C29.5003 17.7821 28.6907 18.5917 27.692 18.5917C26.9603 18.5938 26.3021 19.0366 26.0243 19.7135C25.7465 20.3903 25.904 21.1679 26.4232 21.6834C27.1198 22.3971 27.1198 23.5362 26.4232 24.25L24.2357 26.4375C23.522 27.1341 22.3829 27.1341 21.6691 26.4375C21.3398 26.0887 20.88 25.8931 20.4003 25.8979C19.9182 25.894 19.4545 26.0829 19.1122 26.4224C18.7699 26.762 18.5774 27.2241 18.5774 27.7063C18.5774 28.705 17.7678 29.5146 16.7691 29.5146H13.6482C12.6495 29.5146 11.8399 28.705 11.8399 27.7063C11.8399 27.2241 11.6474 26.762 11.3051 26.4224C10.9628 26.0829 10.4991 25.894 10.017 25.8979C9.53736 25.8931 9.07747 26.0887 8.74824 26.4375C8.03446 27.1341 6.89536 27.1341 6.18157 26.4375L3.99408 24.25C3.29753 23.5362 3.29753 22.3971 3.99408 21.6834C4.51331 21.1679 4.67078 20.3903 4.39301 19.7135C4.11524 19.0366 3.45697 18.5938 2.72533 18.5917C2.24573 18.5917 1.78577 18.4012 1.44664 18.062C1.10751 17.7229 0.916992 17.263 0.916992 16.7834V13.6625C0.916992 12.6638 1.72661 11.8542 2.72533 11.8542C3.45697 11.8521 4.11524 11.4093 4.39301 10.7324C4.67078 10.0555 4.51331 9.27798 3.99408 8.76252C3.29753 8.04874 3.29753 6.90964 3.99408 6.19585L6.18157 4.00835C6.89536 3.31181 8.03446 3.31181 8.74824 4.00835C9.07747 4.35718 9.53736 4.55276 10.017 4.54794C10.5017 4.55186 10.9676 4.36107 11.3103 4.01835C11.653 3.67563 11.8438 3.20968 11.8399 2.72502C11.8399 1.72631 12.6495 0.916687 13.6482 0.916687H16.7837C17.7824 0.916687 18.592 1.72631 18.592 2.72502C18.5881 3.20968 18.7789 3.67563 19.1216 4.01835C19.4643 4.36107 19.9302 4.55186 20.4149 4.54794C20.8945 4.55276 21.3544 4.35718 21.6837 4.00835C22.3974 3.31181 23.5365 3.31181 24.2503 4.00835L26.4378 6.19585C27.1344 6.90964 27.1344 8.04874 26.4378 8.76252C25.9186 9.27798 25.7611 10.0555 26.0389 10.7324ZM23.9587 18.8688C24.5279 17.4808 25.8315 16.5327 27.3274 16.4188L27.2837 14.0271C25.804 13.8974 24.5209 12.9519 23.9587 11.5771C23.4079 10.1991 23.6601 8.62983 24.6149 7.49377L22.9378 5.81669C22.2266 6.41229 21.328 6.73766 20.4003 6.73544C18.3337 6.73037 16.6067 5.16095 16.4045 3.10419H14.0128C13.8172 5.16422 12.0863 6.73718 10.017 6.73544C9.08934 6.73766 8.19069 6.41229 7.47949 5.81669L5.84616 7.49377C6.7861 8.6385 7.02137 10.207 6.45866 11.5771C5.89643 12.9519 4.61327 13.8974 3.13366 14.0271V16.4188C4.61327 16.5485 5.89643 17.494 6.45866 18.8688C7.00938 20.2468 6.75718 21.816 5.80241 22.9521L7.47949 24.6292C8.19069 24.0336 9.08934 23.7082 10.017 23.7104C12.0837 23.7155 13.8107 25.2849 14.0128 27.3417H16.4045C16.5868 25.275 18.3257 23.6948 20.4003 23.7104C21.328 23.7082 22.2266 24.0336 22.9378 24.6292L24.5712 22.9521C23.6312 21.8074 23.396 20.2389 23.9587 18.8688Z" fill="#5C5C5F"/>
<path fill-rule="evenodd" clip-rule="evenodd" d="M10.1631 15.223C10.1631 12.4362 12.4222 10.1771 15.2089 10.1771C16.5472 10.1771 17.8306 10.7087 18.7769 11.655C19.7231 12.6013 20.2548 13.8847 20.2548 15.223C20.2548 18.0097 17.9957 20.2688 15.2089 20.2688C12.4222 20.2688 10.1631 18.0097 10.1631 15.223ZM12.2923 15.223C12.2923 16.8338 13.5981 18.1396 15.2089 18.1396C16.8198 18.1396 18.1256 16.8338 18.1256 15.223C18.1256 13.6121 16.8198 12.3063 15.2089 12.3063C13.5981 12.3063 12.2923 13.6121 12.2923 15.223Z" fill="#5C5C5F"/>
</svg>
