<svg width="29" height="26" viewBox="0 0 29 26" fill="none" xmlns="http://www.w3.org/2000/svg">
<path d="M27.7696 18.4304H8.57871L9.54228 16.4678L25.5524 16.4388C26.0938 16.4388 26.5579 16.0521 26.6546 15.5171L28.8718 3.10664C28.9298 2.78115 28.8428 2.446 28.6301 2.19141C28.525 2.06611 28.3938 1.96518 28.2458 1.89562C28.0978 1.82606 27.9364 1.78953 27.7729 1.78857L7.40566 1.7209L7.23164 0.902344C7.12207 0.380273 6.65156 0 6.1166 0H1.1376C0.835888 0 0.546536 0.119854 0.333195 0.333195C0.119854 0.546535 0 0.835888 0 1.1376C0 1.43931 0.119854 1.72866 0.333195 1.942C0.546536 2.15534 0.835888 2.2752 1.1376 2.2752H5.19492L5.95547 5.89102L7.82783 14.9563L5.41729 18.8912C5.2921 19.0602 5.2167 19.2608 5.19962 19.4704C5.18253 19.68 5.22444 19.8901 5.32061 20.0771C5.51397 20.4606 5.90391 20.7023 6.33574 20.7023H8.35957C7.92812 21.2754 7.69507 21.9734 7.6957 22.6907C7.6957 24.5147 9.17812 25.9972 11.0021 25.9972C12.8262 25.9972 14.3086 24.5147 14.3086 22.6907C14.3086 21.9721 14.0701 21.2728 13.6447 20.7023H18.8364C18.405 21.2754 18.1719 21.9734 18.1726 22.6907C18.1726 24.5147 19.655 25.9972 21.479 25.9972C23.303 25.9972 24.7854 24.5147 24.7854 22.6907C24.7854 21.9721 24.547 21.2728 24.1216 20.7023H27.7729C28.398 20.7023 28.9104 20.1932 28.9104 19.5647C28.9086 19.2634 28.7876 18.9749 28.5739 18.7624C28.3601 18.5499 28.071 18.4305 27.7696 18.4304V18.4304ZM7.8794 3.96387L26.4354 4.0251L24.6179 14.2022L10.0418 14.228L7.8794 3.96387ZM11.0021 23.7091C10.4414 23.7091 9.98379 23.2515 9.98379 22.6907C9.98379 22.13 10.4414 21.6724 11.0021 21.6724C11.5629 21.6724 12.0205 22.13 12.0205 22.6907C12.0205 22.9608 11.9132 23.2198 11.7222 23.4108C11.5313 23.6018 11.2722 23.7091 11.0021 23.7091V23.7091ZM21.479 23.7091C20.9183 23.7091 20.4606 23.2515 20.4606 22.6907C20.4606 22.13 20.9183 21.6724 21.479 21.6724C22.0397 21.6724 22.4974 22.13 22.4974 22.6907C22.4974 22.9608 22.3901 23.2198 22.1991 23.4108C22.0081 23.6018 21.7491 23.7091 21.479 23.7091V23.7091Z" fill="black"/>
</svg>
