<svg xmlns="http://www.w3.org/2000/svg" width="109.139" height="109.114" viewBox="0 0 109.139 109.114">
  <path id="store" d="M103.665,61.66v38.417a9.1,9.1,0,0,1-9.093,9.093H14.556a9.1,9.1,0,0,1-9.093-9.093V61.66a1.819,1.819,0,0,1,3.637,0v38.417a5.462,5.462,0,0,0,5.456,5.456H34.333V74.844a9.1,9.1,0,0,1,9.093-9.093H65.7A9.1,9.1,0,0,1,74.8,74.844V98.258a1.819,1.819,0,0,1-3.637,0V74.844A5.462,5.462,0,0,0,65.7,69.389H43.425a5.462,5.462,0,0,0-5.456,5.456v30.688H52.745V76.89a1.819,1.819,0,1,1,3.637,0v28.642h38.19a5.462,5.462,0,0,0,5.456-5.456V61.66a1.819,1.819,0,1,1,3.637,0ZM11.828,29.153a1.819,1.819,0,0,0,1.819,1.819c98.945,0,94.039.177,94.762-.378A1.809,1.809,0,0,0,109.1,29.4c.1-.731.754,1.066-11.951-28.253a1.819,1.819,0,0,0-1.669-1.1H13.646a1.819,1.819,0,0,0-1.669,1.1L.157,28.43c-.209.482-.15-.283-.15,12.005A15,15,0,0,0,28.191,47.58a15.007,15.007,0,0,0,26.373.007,15.007,15.007,0,0,0,26.369,0,15,15,0,0,0,28.188-7.155,1.819,1.819,0,1,0-3.637,0,11.366,11.366,0,1,1-22.732,0,1.819,1.819,0,0,0-3.637,0,11.366,11.366,0,0,1-22.732,0,1.819,1.819,0,0,0-3.637,0,11.366,11.366,0,1,1-22.732-.091,1.819,1.819,0,0,0-3.637,0,11.366,11.366,0,1,1-22.732.091V29.53L14.84,3.693H94.288l10.244,23.641H13.646a1.818,1.818,0,0,0-1.819,1.819Z" transform="translate(0.001 -0.056)"/>
</svg>
