<svg width="14" height="15" viewBox="0 0 14 15" fill="none" xmlns="http://www.w3.org/2000/svg">
<path fill-rule="evenodd" clip-rule="evenodd" d="M8.13858 5.35988H11.3644C12.1753 5.35988 12.7819 6.34738 12.5836 7.37863L11.8719 11.5599C11.8079 12.2498 11.2969 12.7945 10.6528 12.8599H3.78108C3.12781 12.8059 2.60443 12.2583 2.53858 11.5599L1.78025 7.36613C1.60525 6.33488 2.21192 5.34738 3.02275 5.34738H6.52275L3.97358 2.09113C3.86922 1.87362 3.92283 1.60741 4.10163 1.45537C4.28043 1.30333 4.53458 1.30783 4.70858 1.46613L7.35692 4.80988L9.69025 1.46613C9.76586 1.35028 9.88323 1.27359 10.014 1.25459C10.1447 1.2356 10.2769 1.27604 10.3786 1.36613C10.5869 1.53865 10.6284 1.85796 10.4719 2.08488L8.13858 5.35988ZM10.9561 11.3786L11.6677 7.19738C11.7229 6.94252 11.6694 6.6746 11.5219 6.46613C11.4845 6.40989 11.4279 6.37172 11.3644 6.35988H3.04608C2.98258 6.37172 2.92599 6.40989 2.88858 6.46613C2.74108 6.6746 2.68765 6.94252 2.74275 7.19738L3.45442 11.3786C3.50108 11.6724 3.66442 11.8411 3.75775 11.8411H10.6527C10.7461 11.8411 10.9094 11.6724 10.9561 11.3786Z" fill="#0B1C3F"/>
<path d="M7.38025 7.35364C7.11607 7.35364 6.90192 7.58309 6.90192 7.86614V9.74114C6.90511 10.0217 7.11833 10.2474 7.38025 10.2474C7.64443 10.2474 7.85858 10.0179 7.85858 9.73489V7.85989C7.85539 7.57929 7.64216 7.35362 7.38025 7.35364V7.35364Z" fill="#0B1C3F"/>
<path d="M4.95941 7.71612C4.89413 7.53413 4.73814 7.40759 4.55695 7.38964C4.37576 7.37169 4.20076 7.46544 4.10544 7.63151C4.01013 7.79759 4.01102 8.00723 4.10774 8.17237L5.06441 10.2161C5.14351 10.3903 5.30943 10.4999 5.49024 10.4974C5.56301 10.4994 5.63513 10.4823 5.70024 10.4474C5.81402 10.3869 5.90071 10.2805 5.9412 10.1516C5.98169 10.0226 5.97265 9.88168 5.91608 9.75987L4.95941 7.71612Z" fill="#0B1C3F"/>
<path d="M10.4777 7.45368C10.3643 7.39131 10.2322 7.3807 10.1114 7.42424C9.99055 7.46779 9.89127 7.5618 9.83608 7.68493L8.87941 9.72867C8.82284 9.85049 8.8138 9.99141 8.85429 10.1204C8.89478 10.2493 8.98147 10.3558 9.09525 10.4162C9.16051 10.4506 9.23252 10.4677 9.30525 10.4662C9.48606 10.4687 9.65198 10.3592 9.73108 10.1849L10.7052 8.14118C10.761 8.01782 10.7684 7.87567 10.7256 7.74648C10.6829 7.6173 10.5936 7.51184 10.4777 7.45368Z" fill="#0B1C3F"/>
</svg>
