<svg width="31" height="30" viewBox="0 0 31 30" fill="none" xmlns="http://www.w3.org/2000/svg">
<path fill-rule="evenodd" clip-rule="evenodd" d="M27.8909 2.40646L30.4018 9.37967C30.9481 10.7299 30.8131 12.2603 30.0388 13.494C29.3799 14.429 28.4266 15.1161 27.3312 15.4453V25.7312C27.3074 26.8866 26.8254 27.9853 25.9913 28.7853C25.1573 29.5853 24.0395 30.0211 22.8841 29.9968H8.27209C7.1023 30.0417 5.96339 29.6155 5.11042 28.8137C4.25745 28.0119 3.7617 26.9015 3.73421 25.7312V15.5966C2.66925 15.3527 1.71003 14.775 0.996355 13.9478C-0.029827 12.6668 -0.28433 10.9316 0.330798 9.40992L2.82663 2.42158C3.41525 0.931208 4.87007 -0.0346448 6.47207 0.00137864H24.2454C25.8449 -0.041497 27.3009 0.919112 27.8909 2.40646ZM17.4112 27.5312H17.4241V27.5766C17.4195 27.5615 17.4152 27.5464 17.4112 27.5312ZM17.4112 27.5312H13.5669C13.5813 27.4157 13.5813 27.2988 13.5669 27.1833V23.9917C13.5932 23.5117 13.8153 23.0636 14.1813 22.752C14.5473 22.4403 15.025 22.2925 15.5031 22.3429C16.4536 22.2732 17.2833 22.9814 17.3636 23.9312V27.1682C17.3636 27.2908 17.3796 27.4129 17.4112 27.5312ZM22.8074 27.5312H19.6158C19.6302 27.4156 19.6302 27.2988 19.6158 27.1833V23.9916C19.5336 21.7643 17.6688 20.021 15.4409 20.089C13.2073 20.0125 11.333 21.7582 11.2509 23.9916V27.2286C11.2366 27.3442 11.2366 27.461 11.2509 27.5765H8.19544C7.08122 27.6279 6.13484 26.7694 6.07776 25.6555V15.5663C8.09314 15.262 9.71175 13.7457 10.1467 11.7545C10.6795 14.1703 12.8968 15.8348 15.3653 15.6722C17.7892 15.7738 19.9373 14.1229 20.4628 11.7545C20.8884 13.8711 22.6415 15.4647 24.789 15.6873V25.7311C24.6965 26.762 23.8422 27.5575 22.8074 27.5765V27.5312ZM25.833 13.0252C26.6349 13.0041 27.3778 12.5989 27.8297 11.9361V11.9815C28.1436 11.4527 28.183 10.8049 27.9356 10.242L25.4398 3.35951C25.2183 2.90938 24.7449 2.6397 24.2448 2.67882H6.47141C5.99024 2.63483 5.52815 2.87772 5.29156 3.299L2.79572 10.242C2.47135 10.8839 2.5296 11.6528 2.94699 12.2386C3.32399 12.7019 3.86648 13.0003 4.45961 13.0706C4.65056 13.0928 4.84346 13.0928 5.03441 13.0706C6.19832 13.1342 7.2495 12.3788 7.5605 11.2554C7.79129 9.97679 8.89337 9.03938 10.1925 9.01673C11.5056 9.01611 12.623 9.973 12.8244 11.2705C13.1323 12.4009 14.1972 13.1551 15.3657 13.0706C16.5437 13.1491 17.6084 12.3713 17.8917 11.2252C18.1105 9.93737 19.2176 8.98939 20.5237 8.97135C21.8319 8.96956 22.9476 9.9185 23.1557 11.21C23.4639 12.3487 24.5354 13.1096 25.712 13.0252H25.833Z" fill="#5C5C5F"/>
</svg>
