<svg width="22" height="22" viewBox="0 0 22 22" fill="none" xmlns="http://www.w3.org/2000/svg">
<path d="M17.2242 6.41668C16.8242 6.41668 16.5 6.7409 16.5 7.14084V15.2442C16.5 16.9503 15.117 18.3333 13.4109 18.3333H8.20419C6.49809 18.3333 5.11502 16.9503 5.11502 15.2442V7.14084C5.11502 6.7409 4.7908 6.41668 4.39085 6.41668C3.99091 6.41668 3.66669 6.7409 3.66669 7.14084V15.2442C3.69182 17.7576 5.73651 19.7818 8.25002 19.7817H13.4567C15.9523 19.7568 17.9694 17.7398 17.9942 15.2442V7.14084C17.9946 6.94057 17.912 6.74907 17.7661 6.61187C17.6203 6.47466 17.4241 6.404 17.2242 6.41668Z" fill="#FA5600"/>
<path fill-rule="evenodd" clip-rule="evenodd" d="M17.2242 5.11501H4.39085C3.99091 5.11501 3.66669 4.79079 3.66669 4.39084C3.66669 3.9909 3.99091 3.66668 4.39085 3.66668H6.82002L7.90169 2.49334C8.31517 2.07297 8.87955 1.83534 9.46919 1.83334H12.1459C12.7269 1.83334 13.2842 2.06415 13.695 2.47501L14.795 3.66668H17.2242C17.6241 3.66668 17.9484 3.9909 17.9484 4.39084C17.9484 4.79079 17.6241 5.11501 17.2242 5.11501ZM12.1459 3.28168H9.46919C9.28593 3.28174 9.10934 3.35041 8.97419 3.47418L8.80002 3.65751H12.815L12.6409 3.47418C12.5067 3.34883 12.3294 3.27991 12.1459 3.28168Z" fill="#FA5600"/>
<path d="M7.37 8.0575V10.8075C7.37 11.1872 7.6778 11.495 8.0575 11.495C8.43719 11.495 8.745 11.1872 8.745 10.8075V8.0575C8.745 7.6778 8.43719 7.37 8.0575 7.37C7.6778 7.37 7.37 7.6778 7.37 8.0575Z" fill="#FA5600"/>
<path d="M10.12 8.05749V15.3908C10.12 15.7705 10.4278 16.0783 10.8075 16.0783C11.1872 16.0783 11.495 15.7705 11.495 15.3908V8.05749C11.495 7.6778 11.1872 7.37 10.8075 7.37C10.4278 7.37 10.12 7.6778 10.12 8.05749Z" fill="#FA5600"/>
<path d="M12.87 8.0575V10.8075C12.87 11.1872 13.1778 11.495 13.5575 11.495C13.9372 11.495 14.245 11.1872 14.245 10.8075V8.0575C14.245 7.6778 13.9372 7.37 13.5575 7.37C13.1778 7.37 12.87 7.6778 12.87 8.0575Z" fill="#FA5600"/>
</svg>
